<svg width="14" height="14" viewBox="0 0 14 14" fill="none" xmlns="http://www.w3.org/2000/svg">
<path d="M10.3297 10.5578C10.2118 10.6464 10.073 10.6907 9.91317 10.6907C9.772 10.6907 9.63842 10.6464 9.51183 10.5578C9.38467 10.4691 9.32108 10.3402 9.32108 10.1727V5.61517H9.30767L7.567 9.14842C7.51477 9.26197 7.43808 9.36256 7.34242 9.443C7.25783 9.50833 7.14583 9.541 7.00525 9.541C6.86525 9.541 6.75267 9.50833 6.66867 9.443C6.57285 9.36271 6.49612 9.26208 6.44408 9.14842L4.70342 5.61575H4.69V10.1722C4.69337 10.248 4.67691 10.3234 4.64223 10.3909C4.60755 10.4584 4.55585 10.5157 4.49225 10.5572C4.37298 10.6424 4.23048 10.689 4.08392 10.6907C3.9235 10.6907 3.78758 10.6464 3.67442 10.5578C3.56183 10.4691 3.50525 10.3402 3.50525 10.1727V4.05883C3.50525 3.8815 3.56125 3.71525 3.67442 3.56125C3.78642 3.40725 3.98767 3.33025 4.27875 3.33025C4.49458 3.33025 4.66083 3.37925 4.77808 3.47725C4.89475 3.57583 4.99975 3.72283 5.09425 3.91883L7.00583 7.85867H7.01983L8.91742 3.91883C9.01075 3.72283 9.11692 3.57583 9.23417 3.47725C9.35083 3.37925 9.51708 3.33025 9.73292 3.33025C10.0234 3.33025 10.2253 3.40725 10.3373 3.56125C10.4498 3.71583 10.5064 3.88208 10.5064 4.05942V10.1716C10.5064 10.3396 10.4475 10.4685 10.3302 10.5566L10.3297 10.5578ZM6.986 12.9821C10.2865 12.9821 12.9821 10.2754 12.9821 6.958C12.9821 3.67967 10.297 1.01792 6.986 1.01792C3.67617 1.01792 1.0185 3.66392 1.0185 6.958C1.0185 10.2188 3.76892 12.9821 6.986 12.9821ZM6.986 14C3.20542 14 0 10.78 0 6.958C0 3.10042 3.115 0 6.986 0C10.8576 0 14 3.115 14 6.958C14 10.8366 10.85 14 6.986 14Z" fill="black"/>
</svg>
