<svg width="116" height="102" viewBox="0 0 116 102" fill="none" xmlns="http://www.w3.org/2000/svg">
<path opacity="0.4" d="M116 78.8182C116 86.3737 113.589 92.1263 108.766 96.0758C104.116 100.025 98.7765 102 92.7483 102C87.0646 102 81.5531 99.2525 76.2138 93.7576C71.0468 88.2626 68.4632 79.1616 68.4632 66.4545C68.4632 59.4141 69.755 52.2879 72.3385 45.0758C75.0943 37.8636 78.0223 31.8535 81.1225 27.0455C84.395 22.0657 88.098 17.2576 92.2316 12.6212C96.5375 7.81313 99.4655 4.72222 101.016 3.34848C102.738 1.97475 104.116 0.858586 105.149 0L110.833 9.27273L104.374 15.9697C100.585 19.9192 97.0542 25.9293 93.7817 34C91.3705 40.0101 90.1648 45.5909 90.1648 50.7424C89.9926 52.2879 90.0787 53.9192 90.4232 55.6364C96.7958 55.6364 102.48 57.1818 107.474 60.2727C113.158 63.8788 116 70.0606 116 78.8182ZM47.2784 78.8182C47.2784 85.6869 44.8671 91.5253 40.0445 96.3333C36.2554 100.111 30.7439 102 23.51 102C17.9985 102 12.6592 99.2525 7.4922 93.7576C2.4974 88.2626 0 79.1616 0 66.4545C0 59.4141 1.29176 52.2879 3.87528 45.0758C6.4588 37.8636 9.30067 31.8535 12.4009 27.0455C15.6733 22.0657 19.3764 17.2576 23.51 12.6212C27.8159 7.81313 30.7439 4.72222 32.294 3.34848C34.0163 1.97475 35.3942 0.858586 36.4276 0L42.1114 9.27273L35.6526 15.9697C31.3467 20.4343 27.8159 26.101 25.0601 32.9697C22.6488 38.9798 21.4432 44.904 21.4432 50.7424C21.4432 52.2879 21.5293 53.9192 21.7016 55.6364C29.2799 55.6364 35.222 57.4394 39.5278 61.0455C44.6949 65.3384 47.2784 71.2626 47.2784 78.8182Z" fill="#00FFE0"/>
</svg>
