<svg width="32" height="32" viewBox="0 0 32 32" xmlns="http://www.w3.org/2000/svg"><path fill-rule="evenodd" clip-rule="evenodd" d="M16.612 6.257A.857.857 0 0116.6 7.47L6.134 17.73a3.715 3.715 0 00.003 5.253l2.88 2.88a3.717 3.717 0 005.254.004L24.53 15.4a.857.857 0 111.224 1.2L15.486 27.074a5.428 5.428 0 01-7.681 0l-2.88-2.879a5.43 5.43 0 010-7.681l.006-.006L15.4 6.245a.857.857 0 011.212.012zm6.782-5.72a.857.857 0 011.212 0l6.857 6.857a.857.857 0 01-1.212 1.212L23.394 1.75a.857.857 0 010-1.212z"/><path fill-rule="evenodd" clip-rule="evenodd" d="M28.034 3.965a.857.857 0 010 1.213l-6.857 6.857a.857.857 0 11-1.212-1.212l6.857-6.858a.857.857 0 011.212 0zM7.577 24.423a.857.857 0 010 1.212L1.75 31.463a.857.857 0 01-1.212-1.212l5.828-5.828a.857.857 0 011.212 0z"/><path fill-rule="evenodd" clip-rule="evenodd" d="M11.965 2.823a.857.857 0 011.212 0l16 16a.857.857 0 01-1.212 1.212l-16-16a.857.857 0 010-1.212z"/></svg>