<svg width="32" height="32" viewBox="0 0 32 32" xmlns="http://www.w3.org/2000/svg"><path fill-rule="evenodd" clip-rule="evenodd" d="M3.429 7.714c-.79 0-1.43.64-1.43 1.429V16c0 .789.64 1.429 1.43 1.429H28.57c.79 0 1.429-.64 1.429-1.429V9.143c0-.79-.64-1.429-1.429-1.429H3.428zM.286 9.143A3.143 3.143 0 013.429 6H28.57a3.143 3.143 0 013.143 3.143V16a3.143 3.143 0 01-3.143 3.143H3.428A3.143 3.143 0 01.286 16V9.143z"/><path fill-rule="evenodd" clip-rule="evenodd" d="M3.428 17.428c.474 0 .858.384.858.858V28.57A1.429 1.429 0 005.714 30h20.572a1.428 1.428 0 001.428-1.429V18.286a.857.857 0 011.714 0V28.57a3.143 3.143 0 01-3.142 3.143H5.714a3.143 3.143 0 01-3.143-3.143V18.286c0-.474.384-.858.857-.858z"/><path fill-rule="evenodd" clip-rule="evenodd" d="M16 6c.473 0 .857.384.857.857v24a.857.857 0 01-1.714 0v-24c0-.473.383-.857.857-.857z"/><path fill-rule="evenodd" clip-rule="evenodd" d="M8.484.594a.857.857 0 011.208-.11L16 5.741 22.308.484a.857.857 0 111.098 1.317l-6.857 5.715a.857.857 0 01-1.098 0L8.594 1.8a.857.857 0 01-.11-1.207z"/></svg>