<svg width="983" height="967" viewBox="0 0 983 967" fill="none" xmlns="http://www.w3.org/2000/svg"><g opacity=".15"><mask id="path-1-outside-1_1125_8411" maskUnits="userSpaceOnUse" x=".575" y=".321" width="983" height="966" fill="#000"><path fill="#fff" d="M.575.321h983v966h-983z"/><path d="M316.669 3.126v159.252h14.039V3.126h-14.039zm-42.922 42.922v11.633h105.098V46.048H273.747zm4.412 81.832v11.633h96.875V127.88h-96.875zm6.017-27.478v11.633h85.242v-11.633h-85.242zm-45.529-82.233v12.636h29.083V18.169h-29.083zm7.622 56.36v11.633h25.673V74.529h-25.673zm18.252-56.36v1.805c-6.619 16.447-20.458 49.34-31.49 72.606l12.636 3.009c10.831-23.467 24.47-54.555 32.693-75.414l-9.627-2.608-2.407.602h-1.805zm3.409 56.36v2.407c-4.011 47.735-17.85 81.631-39.512 97.476 3.009 2.808 6.82 7.823 8.625 11.032 24.87-19.456 39.111-54.154 43.924-109.712l-8.023-1.604-2.406.401h-2.608zm-20.859 27.879l-11.633 3.61c13.238 62.177 39.713 76.417 87.649 76.417h51.145c.802-4.011 3.008-10.43 5.215-13.839-8.625.2-49.34.2-55.759.2-40.916 0-65.786-12.034-76.617-66.388zm40.314-83.236v11.633h66.389v42.52h-66.389V85.16h79.426V19.172h-79.426zM228.218 2.725c-8.625 29.484-23.066 58.366-39.512 77.42 2.406 3.81 6.217 12.034 7.621 15.444 18.452-22.263 35.1-55.959 45.529-89.053l-13.638-3.81zM213.977 53.47v132.175h13.438V40.432l-.2-.2-13.238 13.237zm214.208 21.662v11.432h149.624V75.131H428.185zm14.24-25.874V60.29h101.288v41.918H440.821v11.032h117.132V49.257H442.425zm46.933-14.24v133.779c0 3.41-1.002 4.413-4.613 4.413-3.409.2-15.644.401-28.079 0 2.206 3.811 4.212 9.627 5.014 13.237 16.447 0 27.277-.2 33.696-2.406 6.217-2.006 8.624-5.817 8.624-15.244V35.016h-14.642zm-56.159 89.053c10.43 6.217 23.266 15.443 29.484 21.661l9.226-9.226c-6.819-6.017-19.656-14.842-30.085-20.659l-8.625 8.224zm122.347-7.221c-9.427 8.023-25.673 19.054-37.506 25.472l8.624 7.622c12.235-5.817 27.879-15.243 39.914-24.269l-11.032-8.825zm-48.337-7.622l-11.633 2.808c11.834 34.899 35.3 60.572 68.996 72.005 2.006-3.811 6.017-9.227 9.226-12.035-32.693-9.426-55.959-32.492-66.589-62.778zm-84.64 56.761l7.22 12.235c14.441-5.816 32.493-13.237 49.742-20.658l-2.608-11.032c-20.057 7.421-40.715 15.043-54.354 19.455zM483.542 1.722v25.473h15.444V1.722h-15.444zm-67.391 18.453v13.237h159.252V20.175H416.151zm-7.221 0v59.168c0 29.483-1.404 70.399-17.449 99.482 3.409 1.404 9.627 5.415 12.234 8.023 16.848-30.487 19.456-76.016 19.456-107.505V20.175H408.93zm192.547 17.85l1.805 17.65c21.661-4.613 72.806-9.627 94.267-11.833-18.252 10.83-37.306 36.504-37.306 67.592 0 44.927 42.12 64.583 79.225 65.987l5.816-16.447c-32.492-1.203-69.196-13.839-69.196-52.95 0-23.667 17.45-54.354 46.131-63.58 10.229-2.808 27.679-3.21 39.312-3.009l-.201-16.045c-13.438.4-32.091 1.604-54.154 3.41-36.904 3.208-74.812 6.819-87.648 8.223-4.012.4-10.43.802-18.051 1.002zm130.971 27.88l-10.028 4.412c6.017 8.424 11.633 18.653 16.246 28.28l10.429-4.613c-4.412-9.025-12.034-21.46-16.647-28.08zm21.862-8.424l-9.828 4.613c6.218 8.424 12.235 18.452 17.049 28.08l10.229-5.015c-4.614-8.825-12.436-21.06-17.45-27.678zm45.73 29.483v11.433h173.893V86.964H800.04zm-3.209 82.835v11.834h179.91v-11.834h-179.91zm40.715-50.343h97.276v17.65h-97.276v-17.65zm-14.641-10.63v38.911h127.361v-38.911H822.905zm18.452 42.12c4.613 6.619 9.026 15.444 10.63 21.661l13.639-4.813c-1.805-6.018-6.619-14.642-11.433-20.86l-12.836 4.012zm77.42-4.814c-2.808 6.218-8.424 15.845-12.436 21.862l11.834 4.613c4.212-5.816 9.226-13.638 13.839-21.661l-13.237-4.814zm-89.655-94.869h112.921v14.44H829.122v-14.44zm0-24.47h112.921v14.241H829.122v-14.24zm-13.839-10.83v60.572h141.201V15.963H815.283zM856.801 1.32v71.403h13.037V1.32h-13.037zm42.52 0v71.403h13.439V1.32h-13.439zM272.343 274.556l-18.453-1.805c0 15.444-2.807 33.495-6.418 49.34-5.415 24.67-21.461 78.222-44.325 108.708l16.246 6.619c22.664-36.704 37.105-86.646 43.924-114.725 2.608-12.436 5.416-28.882 6.619-36.103.802-4.011 1.605-8.223 2.407-12.034zm69.196 21.461l-14.641 6.619c14.039 16.446 29.684 51.947 35.701 72.606l15.444-7.421c-6.619-18.653-24.069-55.558-36.504-71.804zm-141.401 22.664l1.805 17.249c5.014-.802 13.438-1.805 18.051-2.407 12.235-1.203 49.741-5.616 63.18-5.616 12.836 0 21.26 3.41 21.26 21.662 0 21.661-3.009 47.936-9.427 61.374-4.212 8.825-10.229 10.429-17.65 10.429-5.616 0-16.045-1.604-24.469-4.211l2.607 16.847c6.418 1.404 15.845 2.808 23.667 2.808 12.837 0 22.865-3.209 29.283-16.647 8.224-16.647 11.433-48.538 11.433-72.405 0-27.278-14.642-34.097-32.493-34.097-13.638 0-54.354 4.613-69.196 5.014-6.418.201-11.633.201-18.051 0zm204.38-14.04l1.203 15.043c7.421.201 16.046.401 23.467.401 24.469.201 50.744-4.212 70.399-9.627l-.401-14.842c-23.065 7.621-48.337 10.229-69.998 10.229-8.625 0-17.249-.401-24.67-1.204zm71.202-32.692l-17.65-1.806c-.602 14.04-5.015 31.69-9.427 44.326-8.223 23.667-26.876 59.369-44.727 80.228l15.444 8.023c16.647-22.464 35.099-58.968 44.727-87.85 4.813-14.24 9.025-33.094 11.633-42.921zm47.334 61.975h-15.845c.802 22.063 3.009 57.965 3.009 73.208 0 10.831-5.616 19.656-22.264 19.656-15.644 0-23.466-6.418-23.466-15.645 0-9.226 10.028-16.045 24.87-16.045 29.484 0 52.55 17.851 67.993 31.89l8.424-13.638c-16.446-14.241-42.32-31.088-76.015-31.088-22.464 0-39.914 11.633-39.914 30.085 0 20.057 17.851 28.882 39.914 28.882 24.87 0 35.099-13.037 35.099-29.083 0-13.237-1.805-43.724-2.206-56.761-.201-7.22-.201-13.237.401-21.461zm40.114 5.215l9.025-13.237c-9.627-7.221-32.291-20.258-46.933-26.475l-8.022 12.034c13.237 6.217 35.099 18.452 45.93 27.678zm103.895 87.448v14.842h113.321v-14.842H667.063zm7.822-98.279v14.441h101.287v-14.441H674.885zm43.122-64.182v169.682h15.243V264.126h-15.243zm-121.144 36.103v13.839h66.589v-13.839h-66.589zm31.69 60.171v86.846h14.842V342.549L628.553 360.4zm0-97.678v44.326h14.842v-44.326h-14.842zm13.639 83.838l-8.624 7.622c8.223 7.22 27.879 26.274 35.3 34.899l9.226-12.235c-5.817-5.014-29.083-25.472-35.902-30.286zm15.644-46.331v3.209c-12.034 30.486-40.715 60.973-67.992 77.018 2.607 2.608 6.217 9.628 7.822 13.439 28.681-18.453 59.368-51.747 74.611-88.652l-8.624-5.616-2.808.602h-3.009zm148.02 124.954l2.006 14.842c35.501-1.203 89.855-3.61 140.398-6.217l.602-13.839c-52.148 2.406-108.107 4.412-143.006 5.214zm-1.805-61.976v14.241h166.272v-14.241H804.051zm34.298-38.308v14.04h95.872v-14.04h-95.872zm20.658 47.334c-6.017 17.65-17.851 42.521-27.277 58.165l13.438 4.413c9.828-15.043 21.461-38.51 30.687-57.764l-16.848-4.814zm47.736 21.26c17.85 16.046 37.706 39.111 46.732 54.154l13.639-8.223c-9.427-15.244-29.083-36.905-47.535-52.75l-12.836 6.819zm-20.86-116.129c18.653 26.074 53.953 52.95 85.242 67.993 2.608-4.413 6.218-9.828 9.828-13.438-31.89-13.037-66.99-39.312-88.25-68.996h-15.444c-15.644 25.673-49.139 54.755-83.637 71.202 3.209 3.209 7.02 8.624 8.825 12.235 34.096-17.049 66.99-44.527 83.436-68.996zM97.045 555.212l-16.647-.401c-2.005 20.859-6.217 43.523-12.034 62.577-10.229 33.896-21.06 47.535-30.486 47.535-9.026 0-20.458-11.232-20.458-36.504 0-29.483 27.478-65.786 71.603-65.786 38.509 0 60.772 26.475 60.772 58.566 0 34.698-25.271 53.953-50.944 59.77-4.814 1.002-10.831 1.805-17.25 2.406l9.227 14.842c47.735-6.217 75.414-34.297 75.414-76.216 0-40.715-29.885-73.809-76.818-73.809-49.14 0-87.85 37.907-87.85 81.431 0 33.294 17.851 53.752 35.903 53.752 18.452 0 34.497-21.26 46.732-62.377 6.218-21.46 10.23-44.927 12.837-65.786zm179.911-31.49v29.283H292.4v-29.283h-15.444zm-76.818 19.656v38.911h14.842v-25.473h139.195v25.473h15.444v-38.911H200.138zm16.848 36.704v12.636h137.189v-12.636H216.986zm-19.857 62.377v13.238h176.702v-13.238H197.129zm23.066-31.69v12.636h131.172v-12.636H220.195zm75.013 34.899l-13.639 3.21c14.441 33.294 42.922 52.147 85.242 59.769 2.006-4.011 6.017-10.028 9.226-13.238-40.314-5.615-68.394-22.062-80.829-49.741zm-18.453-82.233v49.942c0 28.882-6.017 61.574-81.631 82.634 3.209 3.209 7.621 8.825 9.226 12.034 77.821-23.266 87.448-60.371 87.448-94.668v-49.942h-15.043zm118.336-29.484v14.04h68.996v-14.04h-68.996zm2.407 56.761v14.04h64.583v-14.04h-64.583zm-6.218 71.403l4.012 14.642c19.655-6.017 46.532-13.84 71.803-21.461l-2.005-13.438c-27.077 7.822-55.157 15.644-73.81 20.257zm96.073-84.841h65.786v20.258h-65.786v-20.258zm0 32.493h65.786v20.257h-65.786v-20.257zm0-64.584h65.786v20.057h-65.786v-20.057zm-14.04-12.836v110.714h94.468V532.347h-94.468zm52.549 104.496v51.145c0 14.441 3.41 18.854 18.051 18.854h19.455c12.235 0 16.046-6.418 17.249-31.289-3.81-.802-9.828-3.209-12.836-5.616-.602 20.659-1.404 23.667-6.017 23.667H546.12c-4.814 0-5.817-.802-5.817-5.816v-50.945h-14.441zm-34.097 3.009c-3.209 27.879-11.432 47.134-48.337 57.162 3.009 2.808 7.02 8.625 8.625 12.435 40.515-12.636 50.744-35.701 54.354-69.597h-14.642zM422.97 539.567v120.542l14.441-2.406V539.567H422.97zm254.121 17.049l.201 16.246c21.862 2.407 60.772 2.407 82.233 0v-16.246c-19.856 3.008-60.572 3.811-82.434 0zm7.822 81.832l-14.441-1.404c-2.206 9.627-3.209 16.848-3.209 23.466 0 18.854 15.043 30.086 48.538 30.086 20.859 0 37.707-1.605 50.142-4.212l-.401-16.848c-16.046 3.811-31.69 5.415-49.541 5.415-27.477 0-33.896-9.025-33.896-18.251 0-5.416 1.003-11.032 2.808-18.252zm-45.93-97.276l-17.851-1.404c-.2 4.412-.802 9.427-1.404 14.04-2.406 16.647-9.025 50.944-9.025 80.428 0 27.277 3.409 50.343 7.421 64.583l14.24-1.003c-.2-2.206-.401-5.014-.602-7.02 0-2.406.402-6.217 1.003-9.025 1.805-9.627 9.227-30.687 14.241-44.928l-8.424-6.618c-3.41 8.223-8.023 20.257-11.433 29.283-1.203-9.828-1.805-18.252-1.805-27.879 0-22.665 6.218-58.366 10.029-77.019.802-3.61 2.407-10.028 3.61-13.438zm167.074 17.048v149.825h14.842V573.062H958.69V558.22H806.057zm147.017 0v129.768c0 3.811-1.003 4.814-5.014 5.015-4.212.2-18.051.2-32.693-.401 2.407 4.211 4.613 11.231 5.415 15.644 18.252 0 30.888-.401 38.109-2.808 7.019-2.407 9.226-7.421 9.226-17.249V558.22h-15.043zm-78.824-35.099c-3.409 12.234-10.028 29.684-15.644 40.916l14.441 3.409c6.017-10.63 13.639-26.876 19.856-41.116l-18.653-3.209zm-26.876 76.416v80.83h13.839v-80.83h-13.839zm6.418 0v13.639h58.165v39.312h-58.165v13.438h72.205v-66.389h-72.205zm-115.327 197.22h-18.853c.802 3.008 1.604 7.421 2.005 11.833.602 8.424 1.404 39.512 1.404 52.349 0 38.509-1.003 61.374-22.463 80.027-5.015 5.014-13.238 10.028-19.456 12.636l14.642 11.231c42.521-24.87 42.521-57.763 42.521-103.694 0-11.232-.803-45.128-.602-52.549 0-4.613.2-8.624.802-11.833zm-73.408 41.517v15.845c8.825.803 22.865 1.404 32.693 1.404 25.472 0 53.552-1.805 73.007-5.014v-16.246c-20.057 4.613-48.538 6.218-73.208 6.218-11.031 0-23.667-.803-32.492-2.207zm-28.08-38.509l-18.653-2.006c-.2 3.611-.401 9.026-1.002 13.439-2.407 16.847-7.622 47.534-7.622 80.227 0 25.071 6.418 51.145 10.429 63.58l13.84-1.604c-.201-2.206-.602-4.814-.602-6.819-.201-2.407.201-6.218.802-9.026 2.207-10.028 8.224-30.487 13.037-44.326l-8.624-5.215c-3.61 9.828-8.023 22.063-10.63 30.688-7.823-32.894-.803-76.818 5.616-105.901.802-3.811 2.206-9.427 3.409-13.037zm166.272 20.057l1.805 17.65c21.862-4.613 72.807-9.627 94.468-11.834-18.452 10.831-37.506 36.303-37.506 67.592 0 44.928 42.119 64.583 79.425 65.987l5.616-16.446c-32.492-1.404-69.196-13.839-69.196-52.95 0-23.668 17.449-54.355 46.13-63.581 10.229-2.808 27.679-3.209 39.312-3.008l-.201-16.046c-13.438.401-32.091 1.605-53.953 3.41-37.105 3.209-74.812 6.819-87.849 8.223-4.011.401-10.429.802-18.051 1.003z"/></mask><path d="M316.669 3.126v159.252h14.039V3.126h-14.039zm-42.922 42.922v11.633h105.098V46.048H273.747zm4.412 81.832v11.633h96.875V127.88h-96.875zm6.017-27.478v11.633h85.242v-11.633h-85.242zm-45.529-82.233v12.636h29.083V18.169h-29.083zm7.622 56.36v11.633h25.673V74.529h-25.673zm18.252-56.36v1.805c-6.619 16.447-20.458 49.34-31.49 72.606l12.636 3.009c10.831-23.467 24.47-54.555 32.693-75.414l-9.627-2.608-2.407.602h-1.805zm3.409 56.36v2.407c-4.011 47.735-17.85 81.631-39.512 97.476 3.009 2.808 6.82 7.823 8.625 11.032 24.87-19.456 39.111-54.154 43.924-109.712l-8.023-1.604-2.406.401h-2.608zm-20.859 27.879l-11.633 3.61c13.238 62.177 39.713 76.417 87.649 76.417h51.145c.802-4.011 3.008-10.43 5.215-13.839-8.625.2-49.34.2-55.759.2-40.916 0-65.786-12.034-76.617-66.388zm40.314-83.236v11.633h66.389v42.52h-66.389V85.16h79.426V19.172h-79.426zM228.218 2.725c-8.625 29.484-23.066 58.366-39.512 77.42 2.406 3.81 6.217 12.034 7.621 15.444 18.452-22.263 35.1-55.959 45.529-89.053l-13.638-3.81zM213.977 53.47v132.175h13.438V40.432l-.2-.2-13.238 13.237zm214.208 21.662v11.432h149.624V75.131H428.185zm14.24-25.874V60.29h101.288v41.918H440.821v11.032h117.132V49.257H442.425zm46.933-14.24v133.779c0 3.41-1.002 4.413-4.613 4.413-3.409.2-15.644.401-28.079 0 2.206 3.811 4.212 9.627 5.014 13.237 16.447 0 27.277-.2 33.696-2.406 6.217-2.006 8.624-5.817 8.624-15.244V35.016h-14.642zm-56.159 89.053c10.43 6.217 23.266 15.443 29.484 21.661l9.226-9.226c-6.819-6.017-19.656-14.842-30.085-20.659l-8.625 8.224zm122.347-7.221c-9.427 8.023-25.673 19.054-37.506 25.472l8.624 7.622c12.235-5.817 27.879-15.243 39.914-24.269l-11.032-8.825zm-48.337-7.622l-11.633 2.808c11.834 34.899 35.3 60.572 68.996 72.005 2.006-3.811 6.017-9.227 9.226-12.035-32.693-9.426-55.959-32.492-66.589-62.778zm-84.64 56.761l7.22 12.235c14.441-5.816 32.493-13.237 49.742-20.658l-2.608-11.032c-20.057 7.421-40.715 15.043-54.354 19.455zM483.542 1.722v25.473h15.444V1.722h-15.444zm-67.391 18.453v13.237h159.252V20.175H416.151zm-7.221 0v59.168c0 29.483-1.404 70.399-17.449 99.482 3.409 1.404 9.627 5.415 12.234 8.023 16.848-30.487 19.456-76.016 19.456-107.505V20.175H408.93zm192.547 17.85l1.805 17.65c21.661-4.613 72.806-9.627 94.267-11.833-18.252 10.83-37.306 36.504-37.306 67.592 0 44.927 42.12 64.583 79.225 65.987l5.816-16.447c-32.492-1.203-69.196-13.839-69.196-52.95 0-23.667 17.45-54.354 46.131-63.58 10.229-2.808 27.679-3.21 39.312-3.009l-.201-16.045c-13.438.4-32.091 1.604-54.154 3.41-36.904 3.208-74.812 6.819-87.648 8.223-4.012.4-10.43.802-18.051 1.002zm130.971 27.88l-10.028 4.412c6.017 8.424 11.633 18.653 16.246 28.28l10.429-4.613c-4.412-9.025-12.034-21.46-16.647-28.08zm21.862-8.424l-9.828 4.613c6.218 8.424 12.235 18.452 17.049 28.08l10.229-5.015c-4.614-8.825-12.436-21.06-17.45-27.678zm45.73 29.483v11.433h173.893V86.964H800.04zm-3.209 82.835v11.834h179.91v-11.834h-179.91zm40.715-50.343h97.276v17.65h-97.276v-17.65zm-14.641-10.63v38.911h127.361v-38.911H822.905zm18.452 42.12c4.613 6.619 9.026 15.444 10.63 21.661l13.639-4.813c-1.805-6.018-6.619-14.642-11.433-20.86l-12.836 4.012zm77.42-4.814c-2.808 6.218-8.424 15.845-12.436 21.862l11.834 4.613c4.212-5.816 9.226-13.638 13.839-21.661l-13.237-4.814zm-89.655-94.869h112.921v14.44H829.122v-14.44zm0-24.47h112.921v14.241H829.122v-14.24zm-13.839-10.83v60.572h141.201V15.963H815.283zM856.801 1.32v71.403h13.037V1.32h-13.037zm42.52 0v71.403h13.439V1.32h-13.439zM272.343 274.556l-18.453-1.805c0 15.444-2.807 33.495-6.418 49.34-5.415 24.67-21.461 78.222-44.325 108.708l16.246 6.619c22.664-36.704 37.105-86.646 43.924-114.725 2.608-12.436 5.416-28.882 6.619-36.103.802-4.011 1.605-8.223 2.407-12.034zm69.196 21.461l-14.641 6.619c14.039 16.446 29.684 51.947 35.701 72.606l15.444-7.421c-6.619-18.653-24.069-55.558-36.504-71.804zm-141.401 22.664l1.805 17.249c5.014-.802 13.438-1.805 18.051-2.407 12.235-1.203 49.741-5.616 63.18-5.616 12.836 0 21.26 3.41 21.26 21.662 0 21.661-3.009 47.936-9.427 61.374-4.212 8.825-10.229 10.429-17.65 10.429-5.616 0-16.045-1.604-24.469-4.211l2.607 16.847c6.418 1.404 15.845 2.808 23.667 2.808 12.837 0 22.865-3.209 29.283-16.647 8.224-16.647 11.433-48.538 11.433-72.405 0-27.278-14.642-34.097-32.493-34.097-13.638 0-54.354 4.613-69.196 5.014-6.418.201-11.633.201-18.051 0zm204.38-14.04l1.203 15.043c7.421.201 16.046.401 23.467.401 24.469.201 50.744-4.212 70.399-9.627l-.401-14.842c-23.065 7.621-48.337 10.229-69.998 10.229-8.625 0-17.249-.401-24.67-1.204zm71.202-32.692l-17.65-1.806c-.602 14.04-5.015 31.69-9.427 44.326-8.223 23.667-26.876 59.369-44.727 80.228l15.444 8.023c16.647-22.464 35.099-58.968 44.727-87.85 4.813-14.24 9.025-33.094 11.633-42.921zm47.334 61.975h-15.845c.802 22.063 3.009 57.965 3.009 73.208 0 10.831-5.616 19.656-22.264 19.656-15.644 0-23.466-6.418-23.466-15.645 0-9.226 10.028-16.045 24.87-16.045 29.484 0 52.55 17.851 67.993 31.89l8.424-13.638c-16.446-14.241-42.32-31.088-76.015-31.088-22.464 0-39.914 11.633-39.914 30.085 0 20.057 17.851 28.882 39.914 28.882 24.87 0 35.099-13.037 35.099-29.083 0-13.237-1.805-43.724-2.206-56.761-.201-7.22-.201-13.237.401-21.461zm40.114 5.215l9.025-13.237c-9.627-7.221-32.291-20.258-46.933-26.475l-8.022 12.034c13.237 6.217 35.099 18.452 45.93 27.678zm103.895 87.448v14.842h113.321v-14.842H667.063zm7.822-98.279v14.441h101.287v-14.441H674.885zm43.122-64.182v169.682h15.243V264.126h-15.243zm-121.144 36.103v13.839h66.589v-13.839h-66.589zm31.69 60.171v86.846h14.842V342.549L628.553 360.4zm0-97.678v44.326h14.842v-44.326h-14.842zm13.639 83.838l-8.624 7.622c8.223 7.22 27.879 26.274 35.3 34.899l9.226-12.235c-5.817-5.014-29.083-25.472-35.902-30.286zm15.644-46.331v3.209c-12.034 30.486-40.715 60.973-67.992 77.018 2.607 2.608 6.217 9.628 7.822 13.439 28.681-18.453 59.368-51.747 74.611-88.652l-8.624-5.616-2.808.602h-3.009zm148.02 124.954l2.006 14.842c35.501-1.203 89.855-3.61 140.398-6.217l.602-13.839c-52.148 2.406-108.107 4.412-143.006 5.214zm-1.805-61.976v14.241h166.272v-14.241H804.051zm34.298-38.308v14.04h95.872v-14.04h-95.872zm20.658 47.334c-6.017 17.65-17.851 42.521-27.277 58.165l13.438 4.413c9.828-15.043 21.461-38.51 30.687-57.764l-16.848-4.814zm47.736 21.26c17.85 16.046 37.706 39.111 46.732 54.154l13.639-8.223c-9.427-15.244-29.083-36.905-47.535-52.75l-12.836 6.819zm-20.86-116.129c18.653 26.074 53.953 52.95 85.242 67.993 2.608-4.413 6.218-9.828 9.828-13.438-31.89-13.037-66.99-39.312-88.25-68.996h-15.444c-15.644 25.673-49.139 54.755-83.637 71.202 3.209 3.209 7.02 8.624 8.825 12.235 34.096-17.049 66.99-44.527 83.436-68.996zM97.045 555.212l-16.647-.401c-2.005 20.859-6.217 43.523-12.034 62.577-10.229 33.896-21.06 47.535-30.486 47.535-9.026 0-20.458-11.232-20.458-36.504 0-29.483 27.478-65.786 71.603-65.786 38.509 0 60.772 26.475 60.772 58.566 0 34.698-25.271 53.953-50.944 59.77-4.814 1.002-10.831 1.805-17.25 2.406l9.227 14.842c47.735-6.217 75.414-34.297 75.414-76.216 0-40.715-29.885-73.809-76.818-73.809-49.14 0-87.85 37.907-87.85 81.431 0 33.294 17.851 53.752 35.903 53.752 18.452 0 34.497-21.26 46.732-62.377 6.218-21.46 10.23-44.927 12.837-65.786zm179.911-31.49v29.283H292.4v-29.283h-15.444zm-76.818 19.656v38.911h14.842v-25.473h139.195v25.473h15.444v-38.911H200.138zm16.848 36.704v12.636h137.189v-12.636H216.986zm-19.857 62.377v13.238h176.702v-13.238H197.129zm23.066-31.69v12.636h131.172v-12.636H220.195zm75.013 34.899l-13.639 3.21c14.441 33.294 42.922 52.147 85.242 59.769 2.006-4.011 6.017-10.028 9.226-13.238-40.314-5.615-68.394-22.062-80.829-49.741zm-18.453-82.233v49.942c0 28.882-6.017 61.574-81.631 82.634 3.209 3.209 7.621 8.825 9.226 12.034 77.821-23.266 87.448-60.371 87.448-94.668v-49.942h-15.043zm118.336-29.484v14.04h68.996v-14.04h-68.996zm2.407 56.761v14.04h64.583v-14.04h-64.583zm-6.218 71.403l4.012 14.642c19.655-6.017 46.532-13.84 71.803-21.461l-2.005-13.438c-27.077 7.822-55.157 15.644-73.81 20.257zm96.073-84.841h65.786v20.258h-65.786v-20.258zm0 32.493h65.786v20.257h-65.786v-20.257zm0-64.584h65.786v20.057h-65.786v-20.057zm-14.04-12.836v110.714h94.468V532.347h-94.468zm52.549 104.496v51.145c0 14.441 3.41 18.854 18.051 18.854h19.455c12.235 0 16.046-6.418 17.249-31.289-3.81-.802-9.828-3.209-12.836-5.616-.602 20.659-1.404 23.667-6.017 23.667H546.12c-4.814 0-5.817-.802-5.817-5.816v-50.945h-14.441zm-34.097 3.009c-3.209 27.879-11.432 47.134-48.337 57.162 3.009 2.808 7.02 8.625 8.625 12.435 40.515-12.636 50.744-35.701 54.354-69.597h-14.642zM422.97 539.567v120.542l14.441-2.406V539.567H422.97zm254.121 17.049l.201 16.246c21.862 2.407 60.772 2.407 82.233 0v-16.246c-19.856 3.008-60.572 3.811-82.434 0zm7.822 81.832l-14.441-1.404c-2.206 9.627-3.209 16.848-3.209 23.466 0 18.854 15.043 30.086 48.538 30.086 20.859 0 37.707-1.605 50.142-4.212l-.401-16.848c-16.046 3.811-31.69 5.415-49.541 5.415-27.477 0-33.896-9.025-33.896-18.251 0-5.416 1.003-11.032 2.808-18.252zm-45.93-97.276l-17.851-1.404c-.2 4.412-.802 9.427-1.404 14.04-2.406 16.647-9.025 50.944-9.025 80.428 0 27.277 3.409 50.343 7.421 64.583l14.24-1.003c-.2-2.206-.401-5.014-.602-7.02 0-2.406.402-6.217 1.003-9.025 1.805-9.627 9.227-30.687 14.241-44.928l-8.424-6.618c-3.41 8.223-8.023 20.257-11.433 29.283-1.203-9.828-1.805-18.252-1.805-27.879 0-22.665 6.218-58.366 10.029-77.019.802-3.61 2.407-10.028 3.61-13.438zm167.074 17.048v149.825h14.842V573.062H958.69V558.22H806.057zm147.017 0v129.768c0 3.811-1.003 4.814-5.014 5.015-4.212.2-18.051.2-32.693-.401 2.407 4.211 4.613 11.231 5.415 15.644 18.252 0 30.888-.401 38.109-2.808 7.019-2.407 9.226-7.421 9.226-17.249V558.22h-15.043zm-78.824-35.099c-3.409 12.234-10.028 29.684-15.644 40.916l14.441 3.409c6.017-10.63 13.639-26.876 19.856-41.116l-18.653-3.209zm-26.876 76.416v80.83h13.839v-80.83h-13.839zm6.418 0v13.639h58.165v39.312h-58.165v13.438h72.205v-66.389h-72.205zm-115.327 197.22h-18.853c.802 3.008 1.604 7.421 2.005 11.833.602 8.424 1.404 39.512 1.404 52.349 0 38.509-1.003 61.374-22.463 80.027-5.015 5.014-13.238 10.028-19.456 12.636l14.642 11.231c42.521-24.87 42.521-57.763 42.521-103.694 0-11.232-.803-45.128-.602-52.549 0-4.613.2-8.624.802-11.833zm-73.408 41.517v15.845c8.825.803 22.865 1.404 32.693 1.404 25.472 0 53.552-1.805 73.007-5.014v-16.246c-20.057 4.613-48.538 6.218-73.208 6.218-11.031 0-23.667-.803-32.492-2.207zm-28.08-38.509l-18.653-2.006c-.2 3.611-.401 9.026-1.002 13.439-2.407 16.847-7.622 47.534-7.622 80.227 0 25.071 6.418 51.145 10.429 63.58l13.84-1.604c-.201-2.206-.602-4.814-.602-6.819-.201-2.407.201-6.218.802-9.026 2.207-10.028 8.224-30.487 13.037-44.326l-8.624-5.215c-3.61 9.828-8.023 22.063-10.63 30.688-7.823-32.894-.803-76.818 5.616-105.901.802-3.811 2.206-9.427 3.409-13.037zm166.272 20.057l1.805 17.65c21.862-4.613 72.807-9.627 94.468-11.834-18.452 10.831-37.506 36.303-37.506 67.592 0 44.928 42.119 64.583 79.425 65.987l5.616-16.446c-32.492-1.404-69.196-13.839-69.196-52.95 0-23.668 17.449-54.355 46.13-63.581 10.229-2.808 27.679-3.209 39.312-3.008l-.201-16.046c-13.438.401-32.091 1.605-53.953 3.41-37.105 3.209-74.812 6.819-87.849 8.223-4.011.401-10.429.802-18.051 1.003z" stroke="#000" stroke-width="2" mask="url(#path-1-outside-1_1125_8411)"/></g></svg>