<svg width="980" height="968" viewBox="0 0 980 968" fill="none" xmlns="http://www.w3.org/2000/svg"><g opacity=".15"><mask id="path-1-outside-1_916_3467" maskUnits="userSpaceOnUse" x="-.431" y=".519" width="981" height="967" fill="#000"><path fill="#fff" d="M-.431.519h981v967h-981z"/><path d="M116.495 1.519v129.568h14.842V15.358h48.338V1.52h-63.18zm202.174 2.607v159.252h14.04V4.126h-14.04zm-42.922 42.922v11.633h105.098V47.048H275.747zm4.413 81.832v11.633h96.874V128.88H280.16zm6.017-27.478v11.633h85.242v-11.633h-85.242zm-45.529-82.233v12.636h29.082V19.169h-29.082zm7.621 56.36v11.633h25.673V75.529h-25.673zm18.252-56.36v1.805c-6.619 16.447-20.458 49.34-31.489 72.606l12.635 3.009c10.831-23.467 24.47-54.555 32.693-75.414l-9.627-2.608-2.407.602h-1.805zm3.41 56.36v2.407c-4.012 47.735-17.851 81.631-39.512 97.476 3.008 2.808 6.819 7.823 8.624 11.032 24.871-19.456 39.111-54.154 43.925-109.712l-8.023-1.604-2.407.401h-2.607zm-20.86 27.879l-11.633 3.61c13.238 62.177 39.713 76.417 87.649 76.417h51.145c.802-4.011 3.009-10.429 5.215-13.839-8.624.2-49.34.2-55.758.2-40.916 0-65.787-12.034-76.618-66.388zm40.315-83.236v11.633h66.388v42.52h-66.388V86.16h79.425V20.172h-79.425zM230.218 3.725c-8.624 29.484-23.065 58.366-39.512 77.42 2.407 3.81 6.218 12.034 7.622 15.444 18.452-22.263 35.099-55.959 45.529-89.053l-13.639-3.81zm-14.24 50.744v132.175h13.438V41.432l-.201-.2-13.237 13.237zm214.207 21.662v11.432H579.81V76.131H430.185zm14.241-25.874V61.29h101.287v41.919H442.821v11.031h117.132V50.257H444.426zm46.933-14.24v133.779c0 3.41-1.003 4.413-4.613 4.413-3.41.201-15.645.401-28.08 0 2.206 3.811 4.212 9.627 5.014 13.238 16.447 0 27.278-.201 33.696-2.407 6.218-2.006 8.624-5.817 8.624-15.244V36.016h-14.641zm-56.16 89.053c10.43 6.217 23.266 15.443 29.484 21.661l9.226-9.226c-6.819-6.017-19.655-14.842-30.085-20.659l-8.625 8.224zm122.348-7.221c-9.427 8.023-25.673 19.054-37.507 25.472l8.625 7.622c12.234-5.817 27.879-15.243 39.913-24.269l-11.031-8.825zm-48.338-7.622l-11.633 2.808c11.834 34.899 35.301 60.572 68.996 72.005 2.006-3.811 6.017-9.227 9.226-12.034-32.692-9.427-55.958-32.493-66.589-62.779zm-84.64 56.761l7.221 12.235c14.441-5.816 32.492-13.237 49.741-20.658l-2.607-11.032c-20.057 7.421-40.716 15.043-54.355 19.455zM485.542 2.722v25.473h15.444V2.722h-15.444zm-67.391 18.453v13.237h159.252V21.175H418.151zm-7.22 0v59.168c0 29.483-1.404 70.399-17.45 99.482 3.41 1.404 9.627 5.415 12.235 8.023 16.848-30.487 19.455-76.016 19.455-107.505V21.175h-14.24zm192.546 17.85l1.805 17.65c21.661-4.613 72.807-9.627 94.267-11.833-18.251 10.83-37.305 36.504-37.305 67.592 0 44.927 42.119 64.583 79.224 65.987l5.817-16.447c-32.492-1.203-69.196-13.839-69.196-52.95 0-23.667 17.449-54.354 46.13-63.58 10.229-2.808 27.679-3.21 39.312-3.009l-.201-16.045c-13.438.4-32.091 1.604-54.153 3.41-36.905 3.208-74.813 6.819-87.649 8.223-4.011.4-10.43.802-18.051 1.002zm130.971 27.88l-10.028 4.412c6.017 8.424 11.633 18.653 16.246 28.28l10.43-4.613c-4.413-9.025-12.034-21.46-16.648-28.08zm21.862-8.424l-9.827 4.613c6.217 8.424 12.234 18.452 17.048 28.08l10.229-5.015c-4.613-8.825-12.435-21.06-17.45-27.678zm45.73 29.483v11.433h173.893V87.964H802.04zm-3.209 82.835v11.834h179.91v-11.834h-179.91zm40.716-50.343h97.276v17.651h-97.276v-17.651zm-14.642-10.63v38.911h127.361v-38.911H824.905zm18.452 42.12c4.613 6.619 9.026 15.444 10.631 21.661l13.638-4.813c-1.805-6.017-6.619-14.642-11.432-20.86l-12.837 4.012zm77.42-4.814c-2.808 6.218-8.424 15.845-12.435 21.862l11.833 4.613c4.212-5.816 9.226-13.638 13.84-21.661l-13.238-4.814zm-89.654-94.869h112.92v14.441h-112.92V52.263zm0-24.47h112.92v14.241h-112.92v-14.24zm-13.84-10.83v60.572h141.201V16.963H817.283zM858.801 2.32v71.403h13.037V2.32h-13.037zm42.521 0v71.403h13.438V2.32h-13.438zM73.774 275.556l-18.452-1.805c0 15.444-2.808 33.495-6.418 49.34-5.416 24.67-21.461 78.222-44.326 108.708l16.246 6.619c22.664-36.704 37.105-86.646 43.925-114.725 2.607-12.436 5.415-28.882 6.618-36.103.803-4.011 1.605-8.223 2.407-12.034zm69.196 21.461l-14.641 6.619c14.04 16.446 29.684 51.947 35.701 72.606l15.444-7.421c-6.619-18.653-24.068-55.558-36.504-71.804zM1.57 319.681l1.804 17.249c5.015-.802 13.439-1.805 18.052-2.407 12.234-1.203 49.74-5.616 63.179-5.616 12.836 0 21.26 3.41 21.26 21.662 0 21.661-3.008 47.936-9.426 61.374-4.212 8.825-10.23 10.43-17.65 10.43-5.617 0-16.046-1.605-24.47-4.212l2.607 16.847c6.419 1.404 15.845 2.808 23.668 2.808 12.836 0 22.864-3.209 29.283-16.647 8.223-16.647 11.432-48.538 11.432-72.405 0-27.278-14.642-34.097-32.492-34.097-13.639 0-54.354 4.613-69.197 5.014-6.418.201-11.632.201-18.05 0zm204.379-14.04l1.204 15.043c7.421.201 16.045.401 23.466.401 24.47.201 50.744-4.212 70.4-9.627l-.401-14.842c-23.066 7.621-48.337 10.229-69.999 10.229-8.624 0-17.249-.401-24.67-1.204zm71.202-32.692l-17.65-1.806c-.602 14.04-5.014 31.69-9.427 44.326-8.223 23.667-26.876 59.369-44.727 80.228l15.444 8.023c16.647-22.464 35.1-58.968 44.727-87.85 4.814-14.24 9.026-33.093 11.633-42.921zm47.334 61.975H308.64c.803 22.063 3.009 57.965 3.009 73.208 0 10.831-5.616 19.656-22.263 19.656-15.645 0-23.467-6.418-23.467-15.644 0-9.227 10.029-16.046 24.871-16.046 29.483 0 52.549 17.851 67.993 31.89l8.424-13.638c-16.447-14.241-42.32-31.088-76.016-31.088-22.464 0-39.913 11.633-39.913 30.085 0 20.057 17.85 28.882 39.913 28.882 24.871 0 35.1-13.037 35.1-29.083 0-13.237-1.806-43.724-2.207-56.761-.2-7.22-.2-13.237.401-21.461zm40.114 5.215l9.026-13.237c-9.627-7.221-32.292-20.258-46.933-26.475l-8.023 12.034c13.237 6.217 35.099 18.452 45.93 27.678zm103.895 87.448v14.842h113.321v-14.842H468.494zm7.822-98.278v14.44h101.287v-14.44H476.316zm43.122-64.183v169.682h15.244V265.126h-15.244zm-121.143 36.103v13.839h66.589v-13.839h-66.589zm31.69 60.171v86.846h14.842V343.549L429.985 361.4zm0-97.678v44.326h14.842v-44.326h-14.842zm13.638 83.838l-8.624 7.622c8.223 7.22 27.879 26.274 35.3 34.899l9.226-12.235c-5.816-5.014-29.082-25.472-35.902-30.286zm15.645-46.331v3.209c-12.034 30.486-40.716 60.973-67.993 77.018 2.607 2.608 6.218 9.628 7.822 13.439 28.681-18.453 59.368-51.747 74.612-88.652l-8.625-5.616-2.808.602h-3.008zm148.02 124.954l2.005 14.842c35.501-1.203 89.855-3.61 140.399-6.217l.601-13.839c-52.148 2.406-108.106 4.412-143.005 5.214zm-1.805-61.975v14.24h166.271v-14.24H605.483zm34.297-38.309v14.04h95.872v-14.04H639.78zm20.658 47.334c-6.017 17.65-17.85 42.521-27.277 58.165l13.438 4.413c9.828-15.043 21.461-38.51 30.687-57.764l-16.848-4.814zm47.736 21.26c17.851 16.046 37.707 39.111 46.732 54.154l13.639-8.223c-9.427-15.244-29.082-36.905-47.535-52.75l-12.836 6.819zm-20.859-116.129c18.653 26.074 53.953 52.95 85.242 67.993 2.607-4.413 6.217-9.828 9.827-13.438-31.89-13.037-66.99-39.312-88.25-68.996H678.69c-15.644 25.673-49.139 54.755-83.637 71.202 3.209 3.209 7.02 8.624 8.825 12.235 34.097-17.049 66.99-44.527 83.437-68.996zM858.4 449.249V319.681h-14.842V435.41h-48.337v13.839H858.4zM99.046 556.212l-16.647-.401c-2.006 20.859-6.218 43.523-12.034 62.577-10.23 33.896-21.06 47.535-30.487 47.535-9.026 0-20.458-11.232-20.458-36.504 0-29.483 27.478-65.786 71.603-65.786 38.509 0 60.773 26.475 60.773 58.566 0 34.698-25.272 53.953-50.945 59.77-4.814 1.002-10.83 1.805-17.249 2.406l9.226 14.842c47.736-6.217 75.414-34.297 75.414-76.216 0-40.715-29.885-73.809-76.818-73.809-49.14 0-87.849 37.907-87.849 81.431 0 33.294 17.85 53.752 35.902 53.752 18.452 0 34.498-21.26 46.732-62.377 6.218-21.46 10.23-44.927 12.837-65.786zm179.91-31.49v29.284H294.4v-29.284h-15.444zm-76.818 19.656v38.911h14.842v-25.473h139.195v25.473h15.444v-38.911H202.138zm16.848 36.704v12.636h137.189v-12.636H218.986zm-19.856 62.377v13.238h176.701v-13.238H199.13zm23.065-31.69v12.636h131.172v-12.636H222.195zm75.013 34.899l-13.639 3.21c14.441 33.294 42.922 52.147 85.242 59.769 2.006-4.011 6.017-10.028 9.226-13.238-40.314-5.615-68.394-22.062-80.829-49.741zm-18.452-82.233v49.942c0 28.882-6.017 61.574-81.632 82.634 3.209 3.209 7.622 8.825 9.226 12.034 77.821-23.266 87.448-60.371 87.448-94.668v-49.942h-15.042zm118.335-29.484v14.04h68.996v-14.04h-68.996zm2.407 56.762v14.039h64.583v-14.039h-64.583zm-6.217 71.402l4.011 14.642c19.656-6.017 46.532-13.84 71.804-21.461l-2.006-13.438c-27.077 7.822-55.157 15.644-73.809 20.257zm96.072-84.841h65.787v20.258h-65.787v-20.258zm0 32.493h65.787v20.257h-65.787v-20.257zm0-64.584h65.787v20.057h-65.787v-20.057zm-14.04-12.836v110.714h94.468V533.347h-94.468zm52.549 104.496v51.145c0 14.441 3.41 18.854 18.052 18.854h19.455c12.234 0 16.045-6.418 17.249-31.289-3.811-.802-9.828-3.209-12.837-5.616-.601 20.659-1.404 23.667-6.017 23.667H548.12c-4.814 0-5.817-.802-5.817-5.816v-50.945h-14.441zm-34.096 3.009c-3.209 27.879-11.433 47.134-48.338 57.162 3.009 2.808 7.02 8.625 8.625 12.435 40.515-12.636 50.744-35.701 54.354-69.597h-14.641zM424.97 540.567v120.542l14.441-2.406V540.567H424.97zm254.121 17.049l.201 16.246c21.862 2.407 60.772 2.407 82.233 0v-16.246c-19.856 3.008-60.572 3.811-82.434 0zm7.823 81.832l-14.441-1.404c-2.207 9.627-3.21 16.848-3.21 23.466 0 18.854 15.043 30.086 48.538 30.086 20.859 0 37.707-1.605 50.142-4.212l-.401-16.848c-16.045 3.811-31.69 5.415-49.54 5.415-27.478 0-33.896-9.025-33.896-18.251 0-5.416 1.002-11.032 2.808-18.252zm-45.931-97.276l-17.85-1.404c-.201 4.412-.803 9.427-1.404 14.04-2.407 16.647-9.026 50.944-9.026 80.428 0 27.277 3.41 50.343 7.421 64.583l14.241-1.003c-.201-2.206-.402-5.014-.602-7.02 0-2.406.401-6.217 1.003-9.025 1.805-9.627 9.226-30.687 14.24-44.928l-8.424-6.618c-3.41 8.223-8.023 20.257-11.432 29.283-1.204-9.828-1.805-18.252-1.805-27.879 0-22.665 6.217-58.366 10.028-77.019.802-3.61 2.407-10.028 3.61-13.438zm167.074 17.048v149.825h14.842V574.062H960.69V559.22H808.057zm147.017 0v129.768c0 3.811-1.003 4.814-5.014 5.015-4.212.2-18.051.2-32.693-.401 2.407 4.212 4.613 11.231 5.416 15.644 18.251 0 30.887-.401 38.108-2.808 7.02-2.407 9.226-7.421 9.226-17.249V559.22h-15.043zm-78.823-35.099c-3.41 12.234-10.029 29.684-15.645 40.916l14.441 3.409c6.017-10.63 13.639-26.876 19.857-41.116l-18.653-3.209zm-26.877 76.417v80.829h13.84v-80.829h-13.84zm6.419 0v13.638h58.165v39.312h-58.165v13.438h72.204v-66.388h-72.204zM740.466 797.757h-18.854c.802 3.008 1.605 7.421 2.006 11.833.601 8.424 1.404 39.512 1.404 52.349 0 38.509-1.003 61.374-22.464 80.027-5.014 5.014-13.238 10.028-19.455 12.636l14.641 11.231c42.521-24.87 42.521-57.763 42.521-103.694 0-11.232-.802-45.128-.602-52.549 0-4.613.201-8.624.803-11.833zm-73.409 41.517v15.845c8.825.803 22.865 1.404 32.693 1.404 25.472 0 53.552-1.805 73.007-5.014v-16.246c-20.057 4.613-48.538 6.218-73.208 6.218-11.031 0-23.667-.803-32.492-2.207zm-28.079-38.509l-18.653-2.006c-.201 3.611-.401 9.026-1.003 13.439-2.407 16.847-7.622 47.534-7.622 80.227 0 25.071 6.418 51.145 10.43 63.581l13.839-1.605c-.201-2.206-.602-4.814-.602-6.819-.2-2.407.201-6.218.803-9.026 2.206-10.028 8.223-30.486 13.037-44.326l-8.625-5.214c-3.61 9.827-8.023 22.062-10.63 30.687-7.822-32.894-.802-76.818 5.616-105.901.802-3.811 2.206-9.427 3.41-13.037zm166.271 20.057l1.805 17.65c21.862-4.613 72.807-9.627 94.468-11.833-18.452 10.83-37.506 36.303-37.506 67.591 0 44.928 42.119 64.583 79.425 65.987l5.616-16.446c-32.492-1.404-69.196-13.839-69.196-52.95 0-23.668 17.449-54.355 46.131-63.581 10.229-2.808 27.678-3.209 39.311-3.008l-.2-16.046c-13.438.401-32.091 1.605-53.953 3.41-37.106 3.209-74.813 6.819-87.85 8.223-4.011.401-10.429.802-18.051 1.003z"/></mask><path d="M116.495 1.519v129.568h14.842V15.358h48.338V1.52h-63.18zm202.174 2.607v159.252h14.04V4.126h-14.04zm-42.922 42.922v11.633h105.098V47.048H275.747zm4.413 81.832v11.633h96.874V128.88H280.16zm6.017-27.478v11.633h85.242v-11.633h-85.242zm-45.529-82.233v12.636h29.082V19.169h-29.082zm7.621 56.36v11.633h25.673V75.529h-25.673zm18.252-56.36v1.805c-6.619 16.447-20.458 49.34-31.489 72.606l12.635 3.009c10.831-23.467 24.47-54.555 32.693-75.414l-9.627-2.608-2.407.602h-1.805zm3.41 56.36v2.407c-4.012 47.735-17.851 81.631-39.512 97.476 3.008 2.808 6.819 7.823 8.624 11.032 24.871-19.456 39.111-54.154 43.925-109.712l-8.023-1.604-2.407.401h-2.607zm-20.86 27.879l-11.633 3.61c13.238 62.177 39.713 76.417 87.649 76.417h51.145c.802-4.011 3.009-10.429 5.215-13.839-8.624.2-49.34.2-55.758.2-40.916 0-65.787-12.034-76.618-66.388zm40.315-83.236v11.633h66.388v42.52h-66.388V86.16h79.425V20.172h-79.425zM230.218 3.725c-8.624 29.484-23.065 58.366-39.512 77.42 2.407 3.81 6.218 12.034 7.622 15.444 18.452-22.263 35.099-55.959 45.529-89.053l-13.639-3.81zm-14.24 50.744v132.175h13.438V41.432l-.201-.2-13.237 13.237zm214.207 21.662v11.432H579.81V76.131H430.185zm14.241-25.874V61.29h101.287v41.919H442.821v11.031h117.132V50.257H444.426zm46.933-14.24v133.779c0 3.41-1.003 4.413-4.613 4.413-3.41.201-15.645.401-28.08 0 2.206 3.811 4.212 9.627 5.014 13.238 16.447 0 27.278-.201 33.696-2.407 6.218-2.006 8.624-5.817 8.624-15.244V36.016h-14.641zm-56.16 89.053c10.43 6.217 23.266 15.443 29.484 21.661l9.226-9.226c-6.819-6.017-19.655-14.842-30.085-20.659l-8.625 8.224zm122.348-7.221c-9.427 8.023-25.673 19.054-37.507 25.472l8.625 7.622c12.234-5.817 27.879-15.243 39.913-24.269l-11.031-8.825zm-48.338-7.622l-11.633 2.808c11.834 34.899 35.301 60.572 68.996 72.005 2.006-3.811 6.017-9.227 9.226-12.034-32.692-9.427-55.958-32.493-66.589-62.779zm-84.64 56.761l7.221 12.235c14.441-5.816 32.492-13.237 49.741-20.658l-2.607-11.032c-20.057 7.421-40.716 15.043-54.355 19.455zM485.542 2.722v25.473h15.444V2.722h-15.444zm-67.391 18.453v13.237h159.252V21.175H418.151zm-7.22 0v59.168c0 29.483-1.404 70.399-17.45 99.482 3.41 1.404 9.627 5.415 12.235 8.023 16.848-30.487 19.455-76.016 19.455-107.505V21.175h-14.24zm192.546 17.85l1.805 17.65c21.661-4.613 72.807-9.627 94.267-11.833-18.251 10.83-37.305 36.504-37.305 67.592 0 44.927 42.119 64.583 79.224 65.987l5.817-16.447c-32.492-1.203-69.196-13.839-69.196-52.95 0-23.667 17.449-54.354 46.13-63.58 10.229-2.808 27.679-3.21 39.312-3.009l-.201-16.045c-13.438.4-32.091 1.604-54.153 3.41-36.905 3.208-74.813 6.819-87.649 8.223-4.011.4-10.43.802-18.051 1.002zm130.971 27.88l-10.028 4.412c6.017 8.424 11.633 18.653 16.246 28.28l10.43-4.613c-4.413-9.025-12.034-21.46-16.648-28.08zm21.862-8.424l-9.827 4.613c6.217 8.424 12.234 18.452 17.048 28.08l10.229-5.015c-4.613-8.825-12.435-21.06-17.45-27.678zm45.73 29.483v11.433h173.893V87.964H802.04zm-3.209 82.835v11.834h179.91v-11.834h-179.91zm40.716-50.343h97.276v17.651h-97.276v-17.651zm-14.642-10.63v38.911h127.361v-38.911H824.905zm18.452 42.12c4.613 6.619 9.026 15.444 10.631 21.661l13.638-4.813c-1.805-6.017-6.619-14.642-11.432-20.86l-12.837 4.012zm77.42-4.814c-2.808 6.218-8.424 15.845-12.435 21.862l11.833 4.613c4.212-5.816 9.226-13.638 13.84-21.661l-13.238-4.814zm-89.654-94.869h112.92v14.441h-112.92V52.263zm0-24.47h112.92v14.241h-112.92v-14.24zm-13.84-10.83v60.572h141.201V16.963H817.283zM858.801 2.32v71.403h13.037V2.32h-13.037zm42.521 0v71.403h13.438V2.32h-13.438zM73.774 275.556l-18.452-1.805c0 15.444-2.808 33.495-6.418 49.34-5.416 24.67-21.461 78.222-44.326 108.708l16.246 6.619c22.664-36.704 37.105-86.646 43.925-114.725 2.607-12.436 5.415-28.882 6.618-36.103.803-4.011 1.605-8.223 2.407-12.034zm69.196 21.461l-14.641 6.619c14.04 16.446 29.684 51.947 35.701 72.606l15.444-7.421c-6.619-18.653-24.068-55.558-36.504-71.804zM1.57 319.681l1.804 17.249c5.015-.802 13.439-1.805 18.052-2.407 12.234-1.203 49.74-5.616 63.179-5.616 12.836 0 21.26 3.41 21.26 21.662 0 21.661-3.008 47.936-9.426 61.374-4.212 8.825-10.23 10.43-17.65 10.43-5.617 0-16.046-1.605-24.47-4.212l2.607 16.847c6.419 1.404 15.845 2.808 23.668 2.808 12.836 0 22.864-3.209 29.283-16.647 8.223-16.647 11.432-48.538 11.432-72.405 0-27.278-14.642-34.097-32.492-34.097-13.639 0-54.354 4.613-69.197 5.014-6.418.201-11.632.201-18.05 0zm204.379-14.04l1.204 15.043c7.421.201 16.045.401 23.466.401 24.47.201 50.744-4.212 70.4-9.627l-.401-14.842c-23.066 7.621-48.337 10.229-69.999 10.229-8.624 0-17.249-.401-24.67-1.204zm71.202-32.692l-17.65-1.806c-.602 14.04-5.014 31.69-9.427 44.326-8.223 23.667-26.876 59.369-44.727 80.228l15.444 8.023c16.647-22.464 35.1-58.968 44.727-87.85 4.814-14.24 9.026-33.093 11.633-42.921zm47.334 61.975H308.64c.803 22.063 3.009 57.965 3.009 73.208 0 10.831-5.616 19.656-22.263 19.656-15.645 0-23.467-6.418-23.467-15.644 0-9.227 10.029-16.046 24.871-16.046 29.483 0 52.549 17.851 67.993 31.89l8.424-13.638c-16.447-14.241-42.32-31.088-76.016-31.088-22.464 0-39.913 11.633-39.913 30.085 0 20.057 17.85 28.882 39.913 28.882 24.871 0 35.1-13.037 35.1-29.083 0-13.237-1.806-43.724-2.207-56.761-.2-7.22-.2-13.237.401-21.461zm40.114 5.215l9.026-13.237c-9.627-7.221-32.292-20.258-46.933-26.475l-8.023 12.034c13.237 6.217 35.099 18.452 45.93 27.678zm103.895 87.448v14.842h113.321v-14.842H468.494zm7.822-98.278v14.44h101.287v-14.44H476.316zm43.122-64.183v169.682h15.244V265.126h-15.244zm-121.143 36.103v13.839h66.589v-13.839h-66.589zm31.69 60.171v86.846h14.842V343.549L429.985 361.4zm0-97.678v44.326h14.842v-44.326h-14.842zm13.638 83.838l-8.624 7.622c8.223 7.22 27.879 26.274 35.3 34.899l9.226-12.235c-5.816-5.014-29.082-25.472-35.902-30.286zm15.645-46.331v3.209c-12.034 30.486-40.716 60.973-67.993 77.018 2.607 2.608 6.218 9.628 7.822 13.439 28.681-18.453 59.368-51.747 74.612-88.652l-8.625-5.616-2.808.602h-3.008zm148.02 124.954l2.005 14.842c35.501-1.203 89.855-3.61 140.399-6.217l.601-13.839c-52.148 2.406-108.106 4.412-143.005 5.214zm-1.805-61.975v14.24h166.271v-14.24H605.483zm34.297-38.309v14.04h95.872v-14.04H639.78zm20.658 47.334c-6.017 17.65-17.85 42.521-27.277 58.165l13.438 4.413c9.828-15.043 21.461-38.51 30.687-57.764l-16.848-4.814zm47.736 21.26c17.851 16.046 37.707 39.111 46.732 54.154l13.639-8.223c-9.427-15.244-29.082-36.905-47.535-52.75l-12.836 6.819zm-20.859-116.129c18.653 26.074 53.953 52.95 85.242 67.993 2.607-4.413 6.217-9.828 9.827-13.438-31.89-13.037-66.99-39.312-88.25-68.996H678.69c-15.644 25.673-49.139 54.755-83.637 71.202 3.209 3.209 7.02 8.624 8.825 12.235 34.097-17.049 66.99-44.527 83.437-68.996zM858.4 449.249V319.681h-14.842V435.41h-48.337v13.839H858.4zM99.046 556.212l-16.647-.401c-2.006 20.859-6.218 43.523-12.034 62.577-10.23 33.896-21.06 47.535-30.487 47.535-9.026 0-20.458-11.232-20.458-36.504 0-29.483 27.478-65.786 71.603-65.786 38.509 0 60.773 26.475 60.773 58.566 0 34.698-25.272 53.953-50.945 59.77-4.814 1.002-10.83 1.805-17.249 2.406l9.226 14.842c47.736-6.217 75.414-34.297 75.414-76.216 0-40.715-29.885-73.809-76.818-73.809-49.14 0-87.849 37.907-87.849 81.431 0 33.294 17.85 53.752 35.902 53.752 18.452 0 34.498-21.26 46.732-62.377 6.218-21.46 10.23-44.927 12.837-65.786zm179.91-31.49v29.284H294.4v-29.284h-15.444zm-76.818 19.656v38.911h14.842v-25.473h139.195v25.473h15.444v-38.911H202.138zm16.848 36.704v12.636h137.189v-12.636H218.986zm-19.856 62.377v13.238h176.701v-13.238H199.13zm23.065-31.69v12.636h131.172v-12.636H222.195zm75.013 34.899l-13.639 3.21c14.441 33.294 42.922 52.147 85.242 59.769 2.006-4.011 6.017-10.028 9.226-13.238-40.314-5.615-68.394-22.062-80.829-49.741zm-18.452-82.233v49.942c0 28.882-6.017 61.574-81.632 82.634 3.209 3.209 7.622 8.825 9.226 12.034 77.821-23.266 87.448-60.371 87.448-94.668v-49.942h-15.042zm118.335-29.484v14.04h68.996v-14.04h-68.996zm2.407 56.762v14.039h64.583v-14.039h-64.583zm-6.217 71.402l4.011 14.642c19.656-6.017 46.532-13.84 71.804-21.461l-2.006-13.438c-27.077 7.822-55.157 15.644-73.809 20.257zm96.072-84.841h65.787v20.258h-65.787v-20.258zm0 32.493h65.787v20.257h-65.787v-20.257zm0-64.584h65.787v20.057h-65.787v-20.057zm-14.04-12.836v110.714h94.468V533.347h-94.468zm52.549 104.496v51.145c0 14.441 3.41 18.854 18.052 18.854h19.455c12.234 0 16.045-6.418 17.249-31.289-3.811-.802-9.828-3.209-12.837-5.616-.601 20.659-1.404 23.667-6.017 23.667H548.12c-4.814 0-5.817-.802-5.817-5.816v-50.945h-14.441zm-34.096 3.009c-3.209 27.879-11.433 47.134-48.338 57.162 3.009 2.808 7.02 8.625 8.625 12.435 40.515-12.636 50.744-35.701 54.354-69.597h-14.641zM424.97 540.567v120.542l14.441-2.406V540.567H424.97zm254.121 17.049l.201 16.246c21.862 2.407 60.772 2.407 82.233 0v-16.246c-19.856 3.008-60.572 3.811-82.434 0zm7.823 81.832l-14.441-1.404c-2.207 9.627-3.21 16.848-3.21 23.466 0 18.854 15.043 30.086 48.538 30.086 20.859 0 37.707-1.605 50.142-4.212l-.401-16.848c-16.045 3.811-31.69 5.415-49.54 5.415-27.478 0-33.896-9.025-33.896-18.251 0-5.416 1.002-11.032 2.808-18.252zm-45.931-97.276l-17.85-1.404c-.201 4.412-.803 9.427-1.404 14.04-2.407 16.647-9.026 50.944-9.026 80.428 0 27.277 3.41 50.343 7.421 64.583l14.241-1.003c-.201-2.206-.402-5.014-.602-7.02 0-2.406.401-6.217 1.003-9.025 1.805-9.627 9.226-30.687 14.24-44.928l-8.424-6.618c-3.41 8.223-8.023 20.257-11.432 29.283-1.204-9.828-1.805-18.252-1.805-27.879 0-22.665 6.217-58.366 10.028-77.019.802-3.61 2.407-10.028 3.61-13.438zm167.074 17.048v149.825h14.842V574.062H960.69V559.22H808.057zm147.017 0v129.768c0 3.811-1.003 4.814-5.014 5.015-4.212.2-18.051.2-32.693-.401 2.407 4.212 4.613 11.231 5.416 15.644 18.251 0 30.887-.401 38.108-2.808 7.02-2.407 9.226-7.421 9.226-17.249V559.22h-15.043zm-78.823-35.099c-3.41 12.234-10.029 29.684-15.645 40.916l14.441 3.409c6.017-10.63 13.639-26.876 19.857-41.116l-18.653-3.209zm-26.877 76.417v80.829h13.84v-80.829h-13.84zm6.419 0v13.638h58.165v39.312h-58.165v13.438h72.204v-66.388h-72.204zM740.466 797.757h-18.854c.802 3.008 1.605 7.421 2.006 11.833.601 8.424 1.404 39.512 1.404 52.349 0 38.509-1.003 61.374-22.464 80.027-5.014 5.014-13.238 10.028-19.455 12.636l14.641 11.231c42.521-24.87 42.521-57.763 42.521-103.694 0-11.232-.802-45.128-.602-52.549 0-4.613.201-8.624.803-11.833zm-73.409 41.517v15.845c8.825.803 22.865 1.404 32.693 1.404 25.472 0 53.552-1.805 73.007-5.014v-16.246c-20.057 4.613-48.538 6.218-73.208 6.218-11.031 0-23.667-.803-32.492-2.207zm-28.079-38.509l-18.653-2.006c-.201 3.611-.401 9.026-1.003 13.439-2.407 16.847-7.622 47.534-7.622 80.227 0 25.071 6.418 51.145 10.43 63.581l13.839-1.605c-.201-2.206-.602-4.814-.602-6.819-.2-2.407.201-6.218.803-9.026 2.206-10.028 8.223-30.486 13.037-44.326l-8.625-5.214c-3.61 9.827-8.023 22.062-10.63 30.687-7.822-32.894-.802-76.818 5.616-105.901.802-3.811 2.206-9.427 3.41-13.037zm166.271 20.057l1.805 17.65c21.862-4.613 72.807-9.627 94.468-11.833-18.452 10.83-37.506 36.303-37.506 67.591 0 44.928 42.119 64.583 79.425 65.987l5.616-16.446c-32.492-1.404-69.196-13.839-69.196-52.95 0-23.668 17.449-54.355 46.131-63.581 10.229-2.808 27.678-3.209 39.311-3.008l-.2-16.046c-13.438.401-32.091 1.605-53.953 3.41-37.106 3.209-74.813 6.819-87.85 8.223-4.011.401-10.429.802-18.051 1.003z" stroke="#000" stroke-width="2" mask="url(#path-1-outside-1_916_3467)"/></g></svg>