<svg width="503" height="610" viewBox="0 0 503 610" fill="none" xmlns="http://www.w3.org/2000/svg"><mask id="path-1-outside-1_1125_8416" maskUnits="userSpaceOnUse" x="-.487" y=".159" width="504" height="610" fill="#000"><path fill="#fff" d="M-.487.159h504v610h-504z"/><path d="M211.983 2.367V139.44h12.084V2.367h-12.084zm-36.944 36.944v10.013H265.5V39.311h-90.461zm3.798 70.436v10.012h83.383v-10.012h-83.383zm5.179-23.651v10.012h73.37V86.095h-73.37zm-39.188-70.781v10.876h25.032V15.315h-25.032zm6.56 48.51v10.013h22.097V63.826h-22.097zm15.71-48.51v1.554c-5.697 14.156-17.609 42.468-27.104 62.494l10.876 2.59c9.322-20.2 21.061-46.958 28.139-64.912l-8.286-2.244-2.072.518h-1.553zm2.934 48.51v2.072c-3.452 41.087-15.364 70.263-34.009 83.901 2.59 2.417 5.87 6.733 7.424 9.495 21.406-16.746 33.663-46.612 37.807-94.432l-6.906-1.38-2.071.345h-2.245zm-17.954 23.997l-10.012 3.107c11.393 53.517 34.181 65.774 75.441 65.774h44.022c.691-3.452 2.59-8.977 4.489-11.911-7.424.172-42.469.172-47.993.172-35.218 0-56.624-10.358-65.947-57.142zm34.7-71.644v10.013h57.142V62.79h-57.142v10.185h68.364V16.178h-68.364zM135.851 2.022c-7.424 25.377-19.853 50.237-34.01 66.637 2.072 3.28 5.352 10.358 6.561 13.293 15.882-19.162 30.211-48.165 39.188-76.65l-11.739-3.28zM123.594 45.7v113.767h11.566V34.478l-.173-.173-11.393 11.394zm184.374 18.645v9.84h128.786v-9.84H307.968zm12.257-22.27v9.495h87.181v36.08h-88.562v9.495h100.819v-55.07h-99.438zm40.397-12.258v115.148c0 2.935-.863 3.798-3.971 3.798-2.935.173-13.465.345-24.169 0 1.899 3.28 3.626 8.287 4.316 11.394 14.156 0 23.479-.173 29.003-2.072 5.352-1.726 7.423-5.006 7.423-13.12V29.816h-12.602zm-48.338 76.65c8.977 5.352 20.026 13.293 25.377 18.645l7.942-7.941c-5.87-5.179-16.919-12.775-25.896-17.782l-7.423 7.078zm105.308-6.214c-8.114 6.905-22.098 16.4-32.283 21.924l7.423 6.56c10.531-5.006 23.996-13.12 34.354-20.888l-9.494-7.596zm-41.606-6.56l-10.012 2.416c10.185 30.039 30.383 52.136 59.386 61.976 1.726-3.28 5.179-7.941 7.941-10.358-28.139-8.114-48.165-27.967-57.315-54.034zm-72.852 48.855l6.215 10.531c12.43-5.006 27.967-11.394 42.814-17.781l-2.245-9.495c-17.263 6.387-35.044 12.947-46.784 16.745zM355.615 1.159v21.925h13.293V1.159h-13.293zM297.61 17.04v11.394h137.072V17.041H297.61zm-6.215 0v50.93c0 25.377-1.208 60.595-15.019 85.627 2.935 1.208 8.286 4.661 10.531 6.905 14.501-26.24 16.745-65.428 16.745-92.532V17.04h-12.257zM1.513 256.406l1.553 15.192c18.645-3.971 62.667-8.287 81.139-10.186-15.71 9.323-32.11 31.42-32.11 58.178 0 38.671 36.253 55.589 68.191 56.797l5.006-14.156c-27.967-1.035-59.559-11.911-59.559-45.575 0-20.371 15.02-46.785 39.706-54.726 8.805-2.417 23.824-2.762 33.837-2.589l-.173-13.811c-11.567.345-27.622 1.381-46.612 2.935-31.764 2.762-64.392 5.869-75.441 7.078-3.453.345-8.977.69-15.537.863zm112.731 23.996l-8.632 3.798c5.179 7.251 10.013 16.055 13.983 24.342l8.977-3.971c-3.798-7.768-10.358-18.472-14.328-24.169zm18.817-7.25l-8.459 3.97c5.351 7.251 10.53 15.883 14.674 24.169l8.804-4.316c-3.971-7.596-10.703-18.126-15.019-23.823zm39.361 25.377v9.84h149.675v-9.84H172.422zm-2.762 71.298v10.186h154.853v-10.186H169.66zm35.044-43.331h83.729v15.192h-83.729v-15.192zm-12.602-9.15v33.491h109.624v-33.491H192.102zm15.883 36.254c3.97 5.697 7.768 13.293 9.149 18.644l11.739-4.143c-1.553-5.179-5.697-12.602-9.84-17.954l-11.048 3.453zm66.637-4.144c-2.417 5.352-7.251 13.639-10.704 18.818l10.186 3.97c3.625-5.006 7.941-11.739 11.912-18.644l-11.394-4.144zM197.454 267.8h97.193v12.43h-97.193V267.8zm0-21.062h97.193v12.257h-97.193v-12.257zm-11.912-9.322v52.136h121.535v-52.136H185.542zm35.735-12.602v61.458h11.222v-61.458h-11.222zm36.599 0v61.458h11.567v-61.458h-11.567zm150.883 10.53l-15.882-1.553c0 13.293-2.417 28.83-5.524 42.468-4.661 21.234-18.472 67.328-38.153 93.568l13.984 5.697c19.508-31.592 31.937-74.578 37.807-98.747 2.244-10.703 4.661-24.86 5.697-31.074.69-3.453 1.381-7.079 2.071-10.359zm59.56 18.472l-12.603 5.697c12.085 14.156 25.55 44.713 30.729 62.494l13.293-6.387c-5.697-16.055-20.716-47.82-31.419-61.804zm-121.708 19.508l1.553 14.847c4.316-.691 11.567-1.554 15.538-2.072 10.53-1.036 42.813-4.834 54.38-4.834 11.048 0 18.299 2.935 18.299 18.645 0 18.645-2.589 41.26-8.114 52.826-3.625 7.596-8.804 8.978-15.192 8.978-4.833 0-13.81-1.382-21.061-3.626l2.244 14.502c5.524 1.208 13.638 2.416 20.371 2.416 11.049 0 19.68-2.762 25.205-14.328 7.078-14.329 9.84-41.778 9.84-62.322 0-23.478-12.602-29.348-27.967-29.348-11.739 0-46.784 3.971-59.559 4.316-5.524.173-10.013.173-15.537 0zM4.621 485.24l1.035 12.947c6.388.173 13.81.346 20.198.346 21.062.172 43.677-3.626 60.595-8.287l-.345-12.775c-19.853 6.56-41.605 8.805-60.25 8.805-7.423 0-14.846-.346-21.234-1.036zm61.285-28.14l-15.192-1.554c-.518 12.085-4.316 27.277-8.114 38.153-7.078 20.371-23.133 51.1-38.498 69.054l13.293 6.905c14.329-19.335 30.211-50.754 38.498-75.614 4.143-12.257 7.768-28.485 10.013-36.944zm40.742 53.344H93.009c.691 18.99 2.59 49.892 2.59 63.012 0 9.323-4.834 16.919-19.163 16.919-13.465 0-20.198-5.525-20.198-13.466 0-7.941 8.632-13.811 21.407-13.811 25.377 0 45.23 15.365 58.523 27.449l7.251-11.739c-14.156-12.257-36.426-26.758-65.429-26.758-19.335 0-34.354 10.012-34.354 25.895 0 17.263 15.364 24.859 34.354 24.859 21.407 0 30.211-11.221 30.211-25.032 0-11.394-1.553-37.634-1.899-48.856-.172-6.214-.172-11.393.346-18.472zm34.527 4.489l7.768-11.394c-8.286-6.215-27.794-17.436-40.396-22.788l-6.906 10.358c11.394 5.352 30.211 15.883 39.534 23.824zm89.425 75.269v12.775h97.539v-12.775H230.6zm6.733-84.591v12.429h87.18v-12.429h-87.18zm37.116-55.244v146.05h13.12v-146.05h-13.12zm-104.272 31.075v11.912h57.315v-11.912h-57.315zm27.277 51.79v74.751h12.775v-90.115l-12.775 15.364zm0-84.073v38.152h12.775v-38.152h-12.775zm11.739 72.161l-7.423 6.561c7.078 6.215 23.996 22.615 30.384 30.038l7.941-10.531c-5.007-4.315-25.032-21.924-30.902-26.068zm13.466-39.878v2.762c-10.359 26.24-35.045 52.481-58.524 66.292 2.244 2.244 5.352 8.286 6.733 11.566 24.687-15.882 51.1-44.539 64.22-76.304l-7.423-4.834-2.417.518h-2.589zm127.404 107.552l1.727 12.775c30.556-1.036 77.34-3.108 120.845-5.352l.517-11.912c-44.885 2.072-93.05 3.798-123.089 4.489zm-1.553-53.345v12.257h143.114v-12.257H348.51zm29.52-32.973v12.084h82.52v-12.084h-82.52zm17.782 40.742c-5.179 15.192-15.365 36.598-23.479 50.064l11.567 3.798c8.459-12.948 18.472-33.146 26.413-49.719l-14.501-4.143zm41.087 18.299c15.365 13.811 32.455 33.664 40.224 46.612l11.739-7.078c-8.114-13.121-25.032-31.765-40.914-45.403l-11.049 5.869zm-17.954-99.956c16.055 22.443 46.439 45.576 73.37 58.524 2.244-3.798 5.352-8.459 8.459-11.567-27.449-11.221-57.66-33.836-75.959-59.386h-13.293c-13.466 22.097-42.296 47.129-71.989 61.285 2.762 2.762 6.042 7.423 7.596 10.531 29.348-14.674 57.66-38.325 71.816-59.387z"/></mask><path d="M211.983 2.367V139.44h12.084V2.367h-12.084zm-36.944 36.944v10.013H265.5V39.311h-90.461zm3.798 70.436v10.012h83.383v-10.012h-83.383zm5.179-23.651v10.012h73.37V86.095h-73.37zm-39.188-70.781v10.876h25.032V15.315h-25.032zm6.56 48.51v10.013h22.097V63.826h-22.097zm15.71-48.51v1.554c-5.697 14.156-17.609 42.468-27.104 62.494l10.876 2.59c9.322-20.2 21.061-46.958 28.139-64.912l-8.286-2.244-2.072.518h-1.553zm2.934 48.51v2.072c-3.452 41.087-15.364 70.263-34.009 83.901 2.59 2.417 5.87 6.733 7.424 9.495 21.406-16.746 33.663-46.612 37.807-94.432l-6.906-1.38-2.071.345h-2.245zm-17.954 23.997l-10.012 3.107c11.393 53.517 34.181 65.774 75.441 65.774h44.022c.691-3.452 2.59-8.977 4.489-11.911-7.424.172-42.469.172-47.993.172-35.218 0-56.624-10.358-65.947-57.142zm34.7-71.644v10.013h57.142V62.79h-57.142v10.185h68.364V16.178h-68.364zM135.851 2.022c-7.424 25.377-19.853 50.237-34.01 66.637 2.072 3.28 5.352 10.358 6.561 13.293 15.882-19.162 30.211-48.165 39.188-76.65l-11.739-3.28zM123.594 45.7v113.767h11.566V34.478l-.173-.173-11.393 11.394zm184.374 18.645v9.84h128.786v-9.84H307.968zm12.257-22.27v9.495h87.181v36.08h-88.562v9.495h100.819v-55.07h-99.438zm40.397-12.258v115.148c0 2.935-.863 3.798-3.971 3.798-2.935.173-13.465.345-24.169 0 1.899 3.28 3.626 8.287 4.316 11.394 14.156 0 23.479-.173 29.003-2.072 5.352-1.726 7.423-5.006 7.423-13.12V29.816h-12.602zm-48.338 76.65c8.977 5.352 20.026 13.293 25.377 18.645l7.942-7.941c-5.87-5.179-16.919-12.775-25.896-17.782l-7.423 7.078zm105.308-6.214c-8.114 6.905-22.098 16.4-32.283 21.924l7.423 6.56c10.531-5.006 23.996-13.12 34.354-20.888l-9.494-7.596zm-41.606-6.56l-10.012 2.416c10.185 30.039 30.383 52.136 59.386 61.976 1.726-3.28 5.179-7.941 7.941-10.358-28.139-8.114-48.165-27.967-57.315-54.034zm-72.852 48.855l6.215 10.531c12.43-5.006 27.967-11.394 42.814-17.781l-2.245-9.495c-17.263 6.387-35.044 12.947-46.784 16.745zM355.615 1.159v21.925h13.293V1.159h-13.293zM297.61 17.04v11.394h137.072V17.041H297.61zm-6.215 0v50.93c0 25.377-1.208 60.595-15.019 85.627 2.935 1.208 8.286 4.661 10.531 6.905 14.501-26.24 16.745-65.428 16.745-92.532V17.04h-12.257zM1.513 256.406l1.553 15.192c18.645-3.971 62.667-8.287 81.139-10.186-15.71 9.323-32.11 31.42-32.11 58.178 0 38.671 36.253 55.589 68.191 56.797l5.006-14.156c-27.967-1.035-59.559-11.911-59.559-45.575 0-20.371 15.02-46.785 39.706-54.726 8.805-2.417 23.824-2.762 33.837-2.589l-.173-13.811c-11.567.345-27.622 1.381-46.612 2.935-31.764 2.762-64.392 5.869-75.441 7.078-3.453.345-8.977.69-15.537.863zm112.731 23.996l-8.632 3.798c5.179 7.251 10.013 16.055 13.983 24.342l8.977-3.971c-3.798-7.768-10.358-18.472-14.328-24.169zm18.817-7.25l-8.459 3.97c5.351 7.251 10.53 15.883 14.674 24.169l8.804-4.316c-3.971-7.596-10.703-18.126-15.019-23.823zm39.361 25.377v9.84h149.675v-9.84H172.422zm-2.762 71.298v10.186h154.853v-10.186H169.66zm35.044-43.331h83.729v15.192h-83.729v-15.192zm-12.602-9.15v33.491h109.624v-33.491H192.102zm15.883 36.254c3.97 5.697 7.768 13.293 9.149 18.644l11.739-4.143c-1.553-5.179-5.697-12.602-9.84-17.954l-11.048 3.453zm66.637-4.144c-2.417 5.352-7.251 13.639-10.704 18.818l10.186 3.97c3.625-5.006 7.941-11.739 11.912-18.644l-11.394-4.144zM197.454 267.8h97.193v12.43h-97.193V267.8zm0-21.062h97.193v12.257h-97.193v-12.257zm-11.912-9.322v52.136h121.535v-52.136H185.542zm35.735-12.602v61.458h11.222v-61.458h-11.222zm36.599 0v61.458h11.567v-61.458h-11.567zm150.883 10.53l-15.882-1.553c0 13.293-2.417 28.83-5.524 42.468-4.661 21.234-18.472 67.328-38.153 93.568l13.984 5.697c19.508-31.592 31.937-74.578 37.807-98.747 2.244-10.703 4.661-24.86 5.697-31.074.69-3.453 1.381-7.079 2.071-10.359zm59.56 18.472l-12.603 5.697c12.085 14.156 25.55 44.713 30.729 62.494l13.293-6.387c-5.697-16.055-20.716-47.82-31.419-61.804zm-121.708 19.508l1.553 14.847c4.316-.691 11.567-1.554 15.538-2.072 10.53-1.036 42.813-4.834 54.38-4.834 11.048 0 18.299 2.935 18.299 18.645 0 18.645-2.589 41.26-8.114 52.826-3.625 7.596-8.804 8.978-15.192 8.978-4.833 0-13.81-1.382-21.061-3.626l2.244 14.502c5.524 1.208 13.638 2.416 20.371 2.416 11.049 0 19.68-2.762 25.205-14.328 7.078-14.329 9.84-41.778 9.84-62.322 0-23.478-12.602-29.348-27.967-29.348-11.739 0-46.784 3.971-59.559 4.316-5.524.173-10.013.173-15.537 0zM4.621 485.24l1.035 12.947c6.388.173 13.81.346 20.198.346 21.062.172 43.677-3.626 60.595-8.287l-.345-12.775c-19.853 6.56-41.605 8.805-60.25 8.805-7.423 0-14.846-.346-21.234-1.036zm61.285-28.14l-15.192-1.554c-.518 12.085-4.316 27.277-8.114 38.153-7.078 20.371-23.133 51.1-38.498 69.054l13.293 6.905c14.329-19.335 30.211-50.754 38.498-75.614 4.143-12.257 7.768-28.485 10.013-36.944zm40.742 53.344H93.009c.691 18.99 2.59 49.892 2.59 63.012 0 9.323-4.834 16.919-19.163 16.919-13.465 0-20.198-5.525-20.198-13.466 0-7.941 8.632-13.811 21.407-13.811 25.377 0 45.23 15.365 58.523 27.449l7.251-11.739c-14.156-12.257-36.426-26.758-65.429-26.758-19.335 0-34.354 10.012-34.354 25.895 0 17.263 15.364 24.859 34.354 24.859 21.407 0 30.211-11.221 30.211-25.032 0-11.394-1.553-37.634-1.899-48.856-.172-6.214-.172-11.393.346-18.472zm34.527 4.489l7.768-11.394c-8.286-6.215-27.794-17.436-40.396-22.788l-6.906 10.358c11.394 5.352 30.211 15.883 39.534 23.824zm89.425 75.269v12.775h97.539v-12.775H230.6zm6.733-84.591v12.429h87.18v-12.429h-87.18zm37.116-55.244v146.05h13.12v-146.05h-13.12zm-104.272 31.075v11.912h57.315v-11.912h-57.315zm27.277 51.79v74.751h12.775v-90.115l-12.775 15.364zm0-84.073v38.152h12.775v-38.152h-12.775zm11.739 72.161l-7.423 6.561c7.078 6.215 23.996 22.615 30.384 30.038l7.941-10.531c-5.007-4.315-25.032-21.924-30.902-26.068zm13.466-39.878v2.762c-10.359 26.24-35.045 52.481-58.524 66.292 2.244 2.244 5.352 8.286 6.733 11.566 24.687-15.882 51.1-44.539 64.22-76.304l-7.423-4.834-2.417.518h-2.589zm127.404 107.552l1.727 12.775c30.556-1.036 77.34-3.108 120.845-5.352l.517-11.912c-44.885 2.072-93.05 3.798-123.089 4.489zm-1.553-53.345v12.257h143.114v-12.257H348.51zm29.52-32.973v12.084h82.52v-12.084h-82.52zm17.782 40.742c-5.179 15.192-15.365 36.598-23.479 50.064l11.567 3.798c8.459-12.948 18.472-33.146 26.413-49.719l-14.501-4.143zm41.087 18.299c15.365 13.811 32.455 33.664 40.224 46.612l11.739-7.078c-8.114-13.121-25.032-31.765-40.914-45.403l-11.049 5.869zm-17.954-99.956c16.055 22.443 46.439 45.576 73.37 58.524 2.244-3.798 5.352-8.459 8.459-11.567-27.449-11.221-57.66-33.836-75.959-59.386h-13.293c-13.466 22.097-42.296 47.129-71.989 61.285 2.762 2.762 6.042 7.423 7.596 10.531 29.348-14.674 57.66-38.325 71.816-59.387z" stroke="#000" stroke-width="2" mask="url(#path-1-outside-1_1125_8416)"/></svg>