<svg width="502" height="601" viewBox="0 0 502 601" fill="none" xmlns="http://www.w3.org/2000/svg"><mask id="path-1-outside-1_1125_8415" maskUnits="userSpaceOnUse" x=".566" y=".159" width="501" height="601" fill="#000"><path fill="#fff" d="M.566.159h501v601h-501z"/><path d="M83.74 28.263l-14.328-.346C67.686 45.871 64.06 65.38 59.054 81.78c-8.804 29.175-18.127 40.914-26.24 40.914-7.77 0-17.61-9.667-17.61-31.42 0-25.377 23.652-56.624 61.631-56.624 33.146 0 52.309 22.788 52.309 50.41 0 29.866-21.752 46.439-43.85 51.445-4.143.863-9.322 1.554-14.846 2.072l7.941 12.775C119.476 146 143.3 121.831 143.3 85.75c0-35.045-25.723-63.53-66.12-63.53-42.295 0-75.614 32.629-75.614 70.09 0 28.658 15.365 46.267 30.902 46.267 15.883 0 29.693-18.3 40.224-53.69 5.352-18.472 8.805-38.67 11.049-56.624zM238.596 1.159v25.205h13.293V1.159h-13.293zm-66.12 16.918v33.491h12.775V29.645H305.06V51.57h13.293V18.077H172.475zm14.502 31.592v10.877H305.06V49.668H186.977zm-17.091 53.69v11.394h152.092v-11.394H169.886zm19.853-27.276v10.876h112.903V76.083H189.739zm64.566 30.038l-11.74 2.762c12.43 28.658 36.944 44.886 73.37 51.446 1.727-3.453 5.179-8.632 7.942-11.394-34.7-4.834-58.869-18.99-69.572-42.814zm-15.883-70.78v42.986c0 24.859-5.179 52.999-70.262 71.126 2.762 2.762 6.56 7.596 7.941 10.358 66.982-20.026 75.269-51.963 75.269-81.484V35.34h-12.948zM340.277 9.963v12.085h59.386V9.963h-59.386zm2.072 48.856v12.085h55.588V58.819h-55.588zm-5.352 61.458l3.453 12.603c16.918-5.179 40.051-11.912 61.803-18.472l-1.726-11.567c-23.306 6.733-47.475 13.466-63.53 17.436zm82.692-73.024h56.625v17.436h-56.625V47.253zm0 27.966h56.625v17.437h-56.625V75.219zm0-55.588h56.625v17.264h-56.625V19.63zM407.605 8.582v95.295h81.311V8.582h-81.311zm45.23 89.943v44.022c0 12.43 2.935 16.228 15.537 16.228h16.746c10.531 0 13.811-5.524 14.847-26.931-3.28-.691-8.46-2.762-11.049-4.834-.518 17.782-1.209 20.371-5.179 20.371h-13.466c-4.143 0-5.006-.69-5.006-5.006v-43.85h-12.43zm-29.348 2.59c-2.762 23.996-9.84 40.569-41.605 49.201 2.59 2.417 6.042 7.423 7.423 10.703 34.873-10.876 43.677-30.729 46.785-59.904h-12.603zm-59.214-86.318v103.754l12.43-2.072V14.797h-12.43zM65.096 253.471l.173 13.984c18.817 2.071 52.308 2.071 70.78 0v-13.984c-17.091 2.59-52.136 3.28-70.953 0zm6.733 70.435l-12.43-1.208c-1.899 8.286-2.762 14.501-2.762 20.198 0 16.228 12.948 25.896 41.778 25.896 17.954 0 32.455-1.382 43.159-3.626l-.346-14.501c-13.81 3.28-27.276 4.661-42.64 4.661-23.652 0-29.176-7.769-29.176-15.71 0-4.661.863-9.495 2.417-15.71zm-39.533-83.728L16.93 238.97c-.173 3.798-.69 8.114-1.209 12.084-2.071 14.329-7.768 43.85-7.768 69.227 0 23.478 2.935 43.331 6.387 55.589l12.258-.864c-.173-1.899-.346-4.315-.518-6.042 0-2.071.345-5.352.863-7.768 1.553-8.287 7.941-26.414 12.257-38.671l-7.25-5.697c-2.936 7.078-6.906 17.436-9.841 25.205-1.036-8.459-1.554-15.71-1.554-23.996 0-19.508 5.352-50.237 8.632-66.292.69-3.108 2.072-8.632 3.107-11.567zM176.1 254.852v128.959h12.775V267.627h118.6v-12.775H176.101zm126.541 0v111.695c0 3.28-.863 4.144-4.315 4.316-3.626.173-15.538.173-28.14-.345 2.072 3.625 3.971 9.667 4.661 13.465 15.71 0 26.586-.345 32.801-2.416 6.042-2.072 7.941-6.388 7.941-14.847V254.852h-12.948zm-67.845-30.211c-2.935 10.531-8.632 25.55-13.466 35.218l12.43 2.934c5.179-9.149 11.739-23.133 17.091-35.39l-16.055-2.762zm-23.133 65.774v69.572h11.911v-69.572h-11.911zm5.524 0v11.739h50.064v33.837h-50.064v11.566h62.149v-57.142h-62.149zm246.005-54.898h-16.227c.69 2.59 1.381 6.388 1.726 10.186.518 7.25 1.208 34.009 1.208 45.057 0 33.146-.863 52.827-19.335 68.882-4.316 4.316-11.394 8.632-16.745 10.876l12.602 9.667c36.599-21.406 36.599-49.719 36.599-89.252 0-9.668-.691-38.843-.518-45.23 0-3.971.172-7.424.69-10.186zm-63.184 35.736v13.638c7.596.69 19.68 1.208 28.139 1.208 21.925 0 46.094-1.554 62.84-4.316V267.8c-17.264 3.97-41.778 5.352-63.012 5.352-9.495 0-20.371-.691-27.967-1.899zm-24.169-33.146l-16.055-1.727c-.173 3.108-.346 7.769-.863 11.567-2.072 14.501-6.561 40.914-6.561 69.054 0 21.579 5.525 44.022 8.977 54.725l11.912-1.381c-.172-1.899-.518-4.143-.518-5.869-.172-2.072.173-5.352.691-7.769 1.899-8.632 7.078-26.241 11.221-38.152l-7.423-4.489c-3.108 8.459-6.906 18.99-9.15 26.413-6.733-28.312-.69-66.119 4.834-91.151.691-3.28 1.899-8.114 2.935-11.221zM173.684 479.37l1.554 15.192c18.817-3.971 62.666-8.286 81.311-10.185-15.883 9.322-32.283 31.247-32.283 58.178 0 38.67 36.253 55.588 68.364 56.797l4.833-14.156c-27.967-1.209-59.559-11.912-59.559-45.576 0-20.371 15.019-46.784 39.706-54.726 8.805-2.416 23.824-2.762 33.837-2.589l-.173-13.811c-11.566.345-27.621 1.381-46.439 2.935-31.937 2.762-64.393 5.87-75.614 7.078-3.453.345-8.977.69-15.537.863z"/></mask><path d="M83.74 28.263l-14.328-.346C67.686 45.871 64.06 65.38 59.054 81.78c-8.804 29.175-18.127 40.914-26.24 40.914-7.77 0-17.61-9.667-17.61-31.42 0-25.377 23.652-56.624 61.631-56.624 33.146 0 52.309 22.788 52.309 50.41 0 29.866-21.752 46.439-43.85 51.445-4.143.863-9.322 1.554-14.846 2.072l7.941 12.775C119.476 146 143.3 121.831 143.3 85.75c0-35.045-25.723-63.53-66.12-63.53-42.295 0-75.614 32.629-75.614 70.09 0 28.658 15.365 46.267 30.902 46.267 15.883 0 29.693-18.3 40.224-53.69 5.352-18.472 8.805-38.67 11.049-56.624zM238.596 1.159v25.205h13.293V1.159h-13.293zm-66.12 16.918v33.491h12.775V29.645H305.06V51.57h13.293V18.077H172.475zm14.502 31.592v10.877H305.06V49.668H186.977zm-17.091 53.69v11.394h152.092v-11.394H169.886zm19.853-27.276v10.876h112.903V76.083H189.739zm64.566 30.038l-11.74 2.762c12.43 28.658 36.944 44.886 73.37 51.446 1.727-3.453 5.179-8.632 7.942-11.394-34.7-4.834-58.869-18.99-69.572-42.814zm-15.883-70.78v42.986c0 24.859-5.179 52.999-70.262 71.126 2.762 2.762 6.56 7.596 7.941 10.358 66.982-20.026 75.269-51.963 75.269-81.484V35.34h-12.948zM340.277 9.963v12.085h59.386V9.963h-59.386zm2.072 48.856v12.085h55.588V58.819h-55.588zm-5.352 61.458l3.453 12.603c16.918-5.179 40.051-11.912 61.803-18.472l-1.726-11.567c-23.306 6.733-47.475 13.466-63.53 17.436zm82.692-73.024h56.625v17.436h-56.625V47.253zm0 27.966h56.625v17.437h-56.625V75.219zm0-55.588h56.625v17.264h-56.625V19.63zM407.605 8.582v95.295h81.311V8.582h-81.311zm45.23 89.943v44.022c0 12.43 2.935 16.228 15.537 16.228h16.746c10.531 0 13.811-5.524 14.847-26.931-3.28-.691-8.46-2.762-11.049-4.834-.518 17.782-1.209 20.371-5.179 20.371h-13.466c-4.143 0-5.006-.69-5.006-5.006v-43.85h-12.43zm-29.348 2.59c-2.762 23.996-9.84 40.569-41.605 49.201 2.59 2.417 6.042 7.423 7.423 10.703 34.873-10.876 43.677-30.729 46.785-59.904h-12.603zm-59.214-86.318v103.754l12.43-2.072V14.797h-12.43zM65.096 253.471l.173 13.984c18.817 2.071 52.308 2.071 70.78 0v-13.984c-17.091 2.59-52.136 3.28-70.953 0zm6.733 70.435l-12.43-1.208c-1.899 8.286-2.762 14.501-2.762 20.198 0 16.228 12.948 25.896 41.778 25.896 17.954 0 32.455-1.382 43.159-3.626l-.346-14.501c-13.81 3.28-27.276 4.661-42.64 4.661-23.652 0-29.176-7.769-29.176-15.71 0-4.661.863-9.495 2.417-15.71zm-39.533-83.728L16.93 238.97c-.173 3.798-.69 8.114-1.209 12.084-2.071 14.329-7.768 43.85-7.768 69.227 0 23.478 2.935 43.331 6.387 55.589l12.258-.864c-.173-1.899-.346-4.315-.518-6.042 0-2.071.345-5.352.863-7.768 1.553-8.287 7.941-26.414 12.257-38.671l-7.25-5.697c-2.936 7.078-6.906 17.436-9.841 25.205-1.036-8.459-1.554-15.71-1.554-23.996 0-19.508 5.352-50.237 8.632-66.292.69-3.108 2.072-8.632 3.107-11.567zM176.1 254.852v128.959h12.775V267.627h118.6v-12.775H176.101zm126.541 0v111.695c0 3.28-.863 4.144-4.315 4.316-3.626.173-15.538.173-28.14-.345 2.072 3.625 3.971 9.667 4.661 13.465 15.71 0 26.586-.345 32.801-2.416 6.042-2.072 7.941-6.388 7.941-14.847V254.852h-12.948zm-67.845-30.211c-2.935 10.531-8.632 25.55-13.466 35.218l12.43 2.934c5.179-9.149 11.739-23.133 17.091-35.39l-16.055-2.762zm-23.133 65.774v69.572h11.911v-69.572h-11.911zm5.524 0v11.739h50.064v33.837h-50.064v11.566h62.149v-57.142h-62.149zm246.005-54.898h-16.227c.69 2.59 1.381 6.388 1.726 10.186.518 7.25 1.208 34.009 1.208 45.057 0 33.146-.863 52.827-19.335 68.882-4.316 4.316-11.394 8.632-16.745 10.876l12.602 9.667c36.599-21.406 36.599-49.719 36.599-89.252 0-9.668-.691-38.843-.518-45.23 0-3.971.172-7.424.69-10.186zm-63.184 35.736v13.638c7.596.69 19.68 1.208 28.139 1.208 21.925 0 46.094-1.554 62.84-4.316V267.8c-17.264 3.97-41.778 5.352-63.012 5.352-9.495 0-20.371-.691-27.967-1.899zm-24.169-33.146l-16.055-1.727c-.173 3.108-.346 7.769-.863 11.567-2.072 14.501-6.561 40.914-6.561 69.054 0 21.579 5.525 44.022 8.977 54.725l11.912-1.381c-.172-1.899-.518-4.143-.518-5.869-.172-2.072.173-5.352.691-7.769 1.899-8.632 7.078-26.241 11.221-38.152l-7.423-4.489c-3.108 8.459-6.906 18.99-9.15 26.413-6.733-28.312-.69-66.119 4.834-91.151.691-3.28 1.899-8.114 2.935-11.221zM173.684 479.37l1.554 15.192c18.817-3.971 62.666-8.286 81.311-10.185-15.883 9.322-32.283 31.247-32.283 58.178 0 38.67 36.253 55.588 68.364 56.797l4.833-14.156c-27.967-1.209-59.559-11.912-59.559-45.576 0-20.371 15.019-46.784 39.706-54.726 8.805-2.416 23.824-2.762 33.837-2.589l-.173-13.811c-11.566.345-27.621 1.381-46.439 2.935-31.937 2.762-64.393 5.87-75.614 7.078-3.453.345-8.977.69-15.537.863z" stroke="#000" stroke-width="2" mask="url(#path-1-outside-1_1125_8415)"/></svg>