<?xml version="1.0" encoding="utf-8"?><svg width="32" height="32" xmlns="http://www.w3.org/2000/svg" viewBox="0 0 32 32"><path fill-rule="evenodd" clip-rule="evenodd" d="M23.29 8.403a.857.857 0 01.307 1.172l-7.336 12.57a2.003 2.003 0 01-2.209.938c-.28-.07-.54-.2-.763-.383l-4.682-3.745a.857.857 0 111.071-1.338l4.695 3.756a.24.24 0 00.2.05l.012-.003a.287.287 0 00.194-.137l7.338-12.572a.857.857 0 011.172-.308z"/><path fill-rule="evenodd" clip-rule="evenodd" d="M16 2C8.268 2 2 8.268 2 16s6.268 14 14 14 14-6.268 14-14S23.732 2 16 2zM.286 16C.286 7.321 7.32.286 16 .286S31.714 7.32 31.714 16 24.68 31.714 16 31.714.286 24.68.286 16z"/></svg>