<?xml version="1.0" encoding="utf-8"?><svg width="32" height="32" xmlns="http://www.w3.org/2000/svg" viewBox="0 0 32 32"><path fill-rule="evenodd" clip-rule="evenodd" d="M16 2.633a.377.377 0 00-.342.219l-.01.02-3.627 7.323a2.022 2.022 0 01-1.6 1.17l-8.01 1.186a.842.842 0 01-.059.006.378.378 0 00-.23.65l.005.005 5.847 5.641a2.069 2.069 0 01.62 1.865l-.001.003-1.394 8.155v.002a.4.4 0 00.582.422l7.224-3.818a2.206 2.206 0 011.99 0L24.22 29.3a.4.4 0 00.582-.422l-1.394-8.065v-.002a2.069 2.069 0 01.614-1.862l5.775-5.729a.377.377 0 00-.191-.667l-.017-.002-8.01-1.187a2.023 2.023 0 01-1.6-1.169l-3.627-7.323.768-.38-.778.36A.377.377 0 0016 2.633zm1.893-.513a2.092 2.092 0 00-3.785 0l-3.63 7.328a.964.964 0 00-.015.033.309.309 0 01-.249.181.876.876 0 00-.03.004l-7.998 1.185a2.091 2.091 0 00-1.245 3.6l5.847 5.64.01.01a.354.354 0 01.107.32l-.001.006-1.394 8.157v.002a2.114 2.114 0 003.074 2.229l.001-.001 7.207-3.809a.491.491 0 01.416 0l7.207 3.809h.001a2.114 2.114 0 003.074-2.23l-1.394-8.067v-.004a.353.353 0 01.125-.339l5.775-5.73a2.092 2.092 0 00-1.163-3.59l-8.016-1.188a.881.881 0 00-.031-.004.308.308 0 01-.248-.181.803.803 0 00-.015-.033l-3.63-7.328z"/></svg>