<svg width="0" height="0" style="position:absolute"><symbol viewBox="0 0 72 54" id="arrow--long-usage" xmlns="http://www.w3.org/2000/svg"><path fill-rule="evenodd" clip-rule="evenodd" d="M51.611 25.708l-8.207-8.302L44.826 16l10.582 10.703-10.582 10.703L43.404 36l8.198-8.292-35.598.067-.004-2 35.611-.067z"/></symbol><symbol viewBox="0 0 32 32" id="arrow-usage" xmlns="http://www.w3.org/2000/svg"><path fill-rule="evenodd" clip-rule="evenodd" d="M15.293 20.707l-8-8 1.414-1.414L16 18.586l7.293-7.293 1.414 1.414-8 8a1 1 0 01-1.414 0z"/></symbol><symbol viewBox="0 0 24 24" id="close-usage" xmlns="http://www.w3.org/2000/svg"><g clip-path="url(#cclip0_810_1297)" fill-rule="evenodd" clip-rule="evenodd"><path d="M23.748.251a.857.857 0 010 1.212L1.462 23.75A.857.857 0 11.25 22.537L22.536.25a.857.857 0 011.212 0z"/><path d="M.25.251a.857.857 0 011.212 0l22.286 22.286a.857.857 0 11-1.212 1.212L.25 1.463a.857.857 0 010-1.212z"/></g><defs><clipPath id="cclip0_810_1297"><path transform="translate(-.001)" d="M0 0h24v24H0z"/></clipPath></defs></symbol><symbol viewBox="0 0 40 40" id="facebook-usage" xmlns="http://www.w3.org/2000/svg"><path fill-rule="evenodd" clip-rule="evenodd" d="M20 39.453c10.744 0 19.453-8.71 19.453-19.453C39.453 9.256 30.743.547 20 .547 9.256.547.547 9.257.547 20c0 9.588 6.936 17.556 16.065 19.159v-13.21h-4.95v-5.49h4.95v-4.185c0-4.76 2.908-7.39 7.362-7.39 2.132 0 4.363.37 4.363.37v4.675h-2.46c-2.42 0-3.174 1.466-3.174 2.968v3.561h5.405l-.864 5.491h-4.541v13.274a20.08 20.08 0 01-2.88.23H20z"/></symbol><symbol viewBox="0 0 40 40" id="inst-usage" xmlns="http://www.w3.org/2000/svg"><path d="M20.03 2.463c-4.756 0-5.352.02-7.22.105-1.863.085-3.136.381-4.25.814a8.582 8.582 0 00-3.1 2.02 8.583 8.583 0 00-2.02 3.1c-.433 1.114-.729 2.387-.814 4.25-.085 1.868-.105 2.464-.105 7.219 0 4.755.02 5.351.105 7.218.085 1.864.381 3.137.814 4.25a8.583 8.583 0 002.02 3.102 8.582 8.582 0 003.1 2.019c1.114.433 2.387.729 4.25.814 1.868.085 2.464.105 7.22.105 4.754 0 5.35-.02 7.218-.105 1.863-.085 3.136-.381 4.25-.814a8.583 8.583 0 003.1-2.02 8.583 8.583 0 002.02-3.1c.433-1.114.729-2.387.814-4.25.085-1.868.105-2.464.105-7.219 0-4.755-.02-5.351-.105-7.219-.085-1.863-.381-3.136-.814-4.25a8.583 8.583 0 00-2.02-3.1 8.583 8.583 0 00-3.1-2.02c-1.114-.433-2.387-.729-4.25-.814-1.868-.085-2.464-.105-7.219-.105zm0 3.154c4.674 0 5.228.018 7.074.103 1.707.077 2.634.363 3.25.602.818.318 1.401.697 2.014 1.31a5.425 5.425 0 011.31 2.013c.24.617.525 1.544.602 3.251.085 1.846.102 2.4.102 7.075 0 4.675-.017 5.229-.102 7.075-.077 1.707-.363 2.634-.602 3.25a5.424 5.424 0 01-1.31 2.014 5.423 5.423 0 01-2.013 1.31c-.617.24-1.544.525-3.251.602-1.846.085-2.4.102-7.075.102-4.675 0-5.229-.017-7.075-.102-1.707-.078-2.634-.363-3.25-.602a5.424 5.424 0 01-2.014-1.31 5.424 5.424 0 01-1.31-2.013c-.24-.617-.524-1.544-.602-3.251-.085-1.846-.102-2.4-.102-7.075 0-4.675.017-5.229.102-7.075.078-1.707.363-2.634.603-3.25.317-.818.697-1.401 1.31-2.014a5.424 5.424 0 012.012-1.31c.617-.24 1.544-.525 3.251-.602 1.846-.085 2.4-.103 7.075-.103z" fill="url(#epaint0_radial_915_3739)"/><path d="M20.03 2.463c-4.756 0-5.352.02-7.22.105-1.863.085-3.136.381-4.25.814a8.582 8.582 0 00-3.1 2.02 8.583 8.583 0 00-2.02 3.1c-.433 1.114-.729 2.387-.814 4.25-.085 1.868-.105 2.464-.105 7.219 0 4.755.02 5.351.105 7.218.085 1.864.381 3.137.814 4.25a8.583 8.583 0 002.02 3.102 8.582 8.582 0 003.1 2.019c1.114.433 2.387.729 4.25.814 1.868.085 2.464.105 7.22.105 4.754 0 5.35-.02 7.218-.105 1.863-.085 3.136-.381 4.25-.814a8.583 8.583 0 003.1-2.02 8.583 8.583 0 002.02-3.1c.433-1.114.729-2.387.814-4.25.085-1.868.105-2.464.105-7.219 0-4.755-.02-5.351-.105-7.219-.085-1.863-.381-3.136-.814-4.25a8.583 8.583 0 00-2.02-3.1 8.583 8.583 0 00-3.1-2.02c-1.114-.433-2.387-.729-4.25-.814-1.868-.085-2.464-.105-7.219-.105zm0 3.154c4.674 0 5.228.018 7.074.103 1.707.077 2.634.363 3.25.602.818.318 1.401.697 2.014 1.31a5.425 5.425 0 011.31 2.013c.24.617.525 1.544.602 3.251.085 1.846.102 2.4.102 7.075 0 4.675-.017 5.229-.102 7.075-.077 1.707-.363 2.634-.602 3.25a5.424 5.424 0 01-1.31 2.014 5.423 5.423 0 01-2.013 1.31c-.617.24-1.544.525-3.251.602-1.846.085-2.4.102-7.075.102-4.675 0-5.229-.017-7.075-.102-1.707-.078-2.634-.363-3.25-.602a5.424 5.424 0 01-2.014-1.31 5.424 5.424 0 01-1.31-2.013c-.24-.617-.524-1.544-.602-3.251-.085-1.846-.102-2.4-.102-7.075 0-4.675.017-5.229.102-7.075.078-1.707.363-2.634.603-3.25.317-.818.697-1.401 1.31-2.014a5.424 5.424 0 012.012-1.31c.617-.24 1.544-.525 3.251-.602 1.846-.085 2.4-.103 7.075-.103z" fill="url(#epaint1_radial_915_3739)"/><path d="M20.03 2.463c-4.756 0-5.352.02-7.22.105-1.863.085-3.136.381-4.25.814a8.582 8.582 0 00-3.1 2.02 8.583 8.583 0 00-2.02 3.1c-.433 1.114-.729 2.387-.814 4.25-.085 1.868-.105 2.464-.105 7.219 0 4.755.02 5.351.105 7.218.085 1.864.381 3.137.814 4.25a8.583 8.583 0 002.02 3.102 8.582 8.582 0 003.1 2.019c1.114.433 2.387.729 4.25.814 1.868.085 2.464.105 7.22.105 4.754 0 5.35-.02 7.218-.105 1.863-.085 3.136-.381 4.25-.814a8.583 8.583 0 003.1-2.02 8.583 8.583 0 002.02-3.1c.433-1.114.729-2.387.814-4.25.085-1.868.105-2.464.105-7.219 0-4.755-.02-5.351-.105-7.219-.085-1.863-.381-3.136-.814-4.25a8.583 8.583 0 00-2.02-3.1 8.583 8.583 0 00-3.1-2.02c-1.114-.433-2.387-.729-4.25-.814-1.868-.085-2.464-.105-7.219-.105zm0 3.154c4.674 0 5.228.018 7.074.103 1.707.077 2.634.363 3.25.602.818.318 1.401.697 2.014 1.31a5.425 5.425 0 011.31 2.013c.24.617.525 1.544.602 3.251.085 1.846.102 2.4.102 7.075 0 4.675-.017 5.229-.102 7.075-.077 1.707-.363 2.634-.602 3.25a5.424 5.424 0 01-1.31 2.014 5.423 5.423 0 01-2.013 1.31c-.617.24-1.544.525-3.251.602-1.846.085-2.4.102-7.075.102-4.675 0-5.229-.017-7.075-.102-1.707-.078-2.634-.363-3.25-.602a5.424 5.424 0 01-2.014-1.31 5.424 5.424 0 01-1.31-2.013c-.24-.617-.524-1.544-.602-3.251-.085-1.846-.102-2.4-.102-7.075 0-4.675.017-5.229.102-7.075.078-1.707.363-2.634.603-3.25.317-.818.697-1.401 1.31-2.014a5.424 5.424 0 012.012-1.31c.617-.24 1.544-.525 3.251-.602 1.846-.085 2.4-.103 7.075-.103z" fill="url(#epaint2_radial_915_3739)"/><path d="M20.03 25.807a5.836 5.836 0 110-11.672 5.836 5.836 0 010 11.672zm0-14.827a8.99 8.99 0 100 17.981 8.99 8.99 0 000-17.98z" fill="url(#epaint3_radial_915_3739)"/><path d="M20.03 25.807a5.836 5.836 0 110-11.672 5.836 5.836 0 010 11.672zm0-14.827a8.99 8.99 0 100 17.981 8.99 8.99 0 000-17.98z" fill="url(#epaint4_radial_915_3739)"/><path d="M20.03 25.807a5.836 5.836 0 110-11.672 5.836 5.836 0 010 11.672zm0-14.827a8.99 8.99 0 100 17.981 8.99 8.99 0 000-17.98z" fill="url(#epaint5_radial_915_3739)"/><path d="M31.476 10.625a2.1 2.1 0 11-4.202 0 2.1 2.1 0 014.202 0z" fill="url(#epaint6_radial_915_3739)"/><path d="M31.476 10.625a2.1 2.1 0 11-4.202 0 2.1 2.1 0 014.202 0z" fill="url(#epaint7_radial_915_3739)"/><path d="M31.476 10.625a2.1 2.1 0 11-4.202 0 2.1 2.1 0 014.202 0z" fill="url(#epaint8_radial_915_3739)"/><defs><radialGradient id="epaint0_radial_915_3739" cx="0" cy="0" r="1" gradientUnits="userSpaceOnUse" gradientTransform="rotate(-55.376 34.884 .044) scale(31.9142)"><stop stop-color="#B13589"/><stop offset=".793" stop-color="#C62F94"/><stop offset="1" stop-color="#8A3AC8"/></radialGradient><radialGradient id="epaint1_radial_915_3739" cx="0" cy="0" r="1" gradientUnits="userSpaceOnUse" gradientTransform="rotate(-65.136 37.205 8.581) scale(28.2558)"><stop stop-color="#E0E8B7"/><stop offset=".445" stop-color="#FB8A2E"/><stop offset=".715" stop-color="#E2425C"/><stop offset="1" stop-color="#E2425C" stop-opacity="0"/></radialGradient><radialGradient id="epaint2_radial_915_3739" cx="0" cy="0" r="1" gradientUnits="userSpaceOnUse" gradientTransform="matrix(48.14718 -6.87817 1.47116 10.29815 .645 3.713)"><stop offset=".157" stop-color="#406ADC"/><stop offset=".468" stop-color="#6A45BE"/><stop offset="1" stop-color="#6A45BE" stop-opacity="0"/></radialGradient><radialGradient id="epaint3_radial_915_3739" cx="0" cy="0" r="1" gradientUnits="userSpaceOnUse" gradientTransform="rotate(-55.376 34.884 .044) scale(31.9142)"><stop stop-color="#B13589"/><stop offset=".793" stop-color="#C62F94"/><stop offset="1" stop-color="#8A3AC8"/></radialGradient><radialGradient id="epaint4_radial_915_3739" cx="0" cy="0" r="1" gradientUnits="userSpaceOnUse" gradientTransform="rotate(-65.136 37.205 8.581) scale(28.2558)"><stop stop-color="#E0E8B7"/><stop offset=".445" stop-color="#FB8A2E"/><stop offset=".715" stop-color="#E2425C"/><stop offset="1" stop-color="#E2425C" stop-opacity="0"/></radialGradient><radialGradient id="epaint5_radial_915_3739" cx="0" cy="0" r="1" gradientUnits="userSpaceOnUse" gradientTransform="matrix(48.14718 -6.87817 1.47116 10.29815 .645 3.713)"><stop offset=".157" stop-color="#406ADC"/><stop offset=".468" stop-color="#6A45BE"/><stop offset="1" stop-color="#6A45BE" stop-opacity="0"/></radialGradient><radialGradient id="epaint6_radial_915_3739" cx="0" cy="0" r="1" gradientUnits="userSpaceOnUse" gradientTransform="rotate(-55.376 34.884 .044) scale(31.9142)"><stop stop-color="#B13589"/><stop offset=".793" stop-color="#C62F94"/><stop offset="1" stop-color="#8A3AC8"/></radialGradient><radialGradient id="epaint7_radial_915_3739" cx="0" cy="0" r="1" gradientUnits="userSpaceOnUse" gradientTransform="rotate(-65.136 37.205 8.581) scale(28.2558)"><stop stop-color="#E0E8B7"/><stop offset=".445" stop-color="#FB8A2E"/><stop offset=".715" stop-color="#E2425C"/><stop offset="1" stop-color="#E2425C" stop-opacity="0"/></radialGradient><radialGradient id="epaint8_radial_915_3739" cx="0" cy="0" r="1" gradientUnits="userSpaceOnUse" gradientTransform="matrix(48.14718 -6.87817 1.47116 10.29815 .645 3.713)"><stop offset=".157" stop-color="#406ADC"/><stop offset=".468" stop-color="#6A45BE"/><stop offset="1" stop-color="#6A45BE" stop-opacity="0"/></radialGradient></defs></symbol><symbol viewBox="0 0 40 40" id="instagram-usage" xmlns="http://www.w3.org/2000/svg"><path d="M20.03 2.463c-4.756 0-5.352.02-7.22.105-1.863.085-3.136.381-4.25.814a8.582 8.582 0 00-3.1 2.02 8.583 8.583 0 00-2.02 3.1c-.433 1.114-.729 2.387-.814 4.25-.085 1.868-.105 2.464-.105 7.219 0 4.755.02 5.351.105 7.218.085 1.864.381 3.137.814 4.25a8.583 8.583 0 002.02 3.102 8.582 8.582 0 003.1 2.019c1.114.433 2.387.729 4.25.814 1.868.085 2.464.105 7.22.105 4.754 0 5.35-.02 7.218-.105 1.863-.085 3.136-.381 4.25-.814a8.583 8.583 0 003.1-2.02 8.583 8.583 0 002.02-3.1c.433-1.114.729-2.387.814-4.25.085-1.868.105-2.464.105-7.219 0-4.755-.02-5.351-.105-7.219-.085-1.863-.381-3.136-.814-4.25a8.583 8.583 0 00-2.02-3.1 8.583 8.583 0 00-3.1-2.02c-1.114-.433-2.387-.729-4.25-.814-1.868-.085-2.464-.105-7.219-.105zm0 3.154c4.674 0 5.228.018 7.074.103 1.707.077 2.634.363 3.25.602.818.318 1.401.697 2.014 1.31a5.425 5.425 0 011.31 2.013c.24.617.525 1.544.602 3.251.085 1.846.102 2.4.102 7.075 0 4.675-.017 5.229-.102 7.075-.077 1.707-.363 2.634-.602 3.25a5.424 5.424 0 01-1.31 2.014 5.423 5.423 0 01-2.013 1.31c-.617.24-1.544.525-3.251.602-1.846.085-2.4.102-7.075.102-4.675 0-5.229-.017-7.075-.102-1.707-.078-2.634-.363-3.25-.602a5.424 5.424 0 01-2.014-1.31 5.424 5.424 0 01-1.31-2.013c-.24-.617-.524-1.544-.602-3.251-.085-1.846-.102-2.4-.102-7.075 0-4.675.017-5.229.102-7.075.078-1.707.363-2.634.603-3.25.317-.818.697-1.401 1.31-2.014a5.424 5.424 0 012.012-1.31c.617-.24 1.544-.525 3.251-.602 1.846-.085 2.4-.103 7.075-.103z"/><path d="M20.03 25.807a5.836 5.836 0 110-11.672 5.836 5.836 0 010 11.672zm0-14.827a8.99 8.99 0 100 17.981 8.99 8.99 0 000-17.98zM31.476 10.625a2.1 2.1 0 11-4.202 0 2.1 2.1 0 014.202 0z"/></symbol><symbol viewBox="0 0 32 32" id="medical-usage" xmlns="http://www.w3.org/2000/svg"><path fill-rule="evenodd" clip-rule="evenodd" d="M16.612 6.257A.857.857 0 0116.6 7.47L6.134 17.73a3.715 3.715 0 00.003 5.253l2.88 2.88a3.717 3.717 0 005.254.004L24.53 15.4a.857.857 0 111.224 1.2L15.486 27.074a5.428 5.428 0 01-7.681 0l-2.88-2.879a5.43 5.43 0 010-7.681l.006-.006L15.4 6.245a.857.857 0 011.212.012zM23.394.537a.857.857 0 011.212 0l6.857 6.857a.857.857 0 01-1.212 1.212L23.394 1.75a.857.857 0 010-1.212z"/><path fill-rule="evenodd" clip-rule="evenodd" d="M28.034 3.965a.857.857 0 010 1.213l-6.857 6.857a.857.857 0 11-1.212-1.212l6.857-6.858a.857.857 0 011.212 0zM7.577 24.423a.857.857 0 010 1.212L1.75 31.463a.857.857 0 01-1.212-1.212l5.828-5.828a.857.857 0 011.212 0z"/><path fill-rule="evenodd" clip-rule="evenodd" d="M11.965 2.823a.857.857 0 011.212 0l16 16a.857.857 0 01-1.212 1.212l-16-16a.857.857 0 010-1.212z"/></symbol><symbol viewBox="0 0 32 32" id="ok-usage" xmlns="http://www.w3.org/2000/svg"><path fill-rule="evenodd" clip-rule="evenodd" d="M23.29 8.403a.857.857 0 01.307 1.172l-7.336 12.57a2.003 2.003 0 01-2.209.938c-.28-.07-.54-.2-.763-.383l-4.682-3.745a.857.857 0 111.071-1.338l4.695 3.756a.24.24 0 00.2.05l.012-.003a.287.287 0 00.194-.137l7.338-12.572a.857.857 0 011.172-.308z"/><path fill-rule="evenodd" clip-rule="evenodd" d="M16 2C8.268 2 2 8.268 2 16s6.268 14 14 14 14-6.268 14-14S23.732 2 16 2zM.286 16C.286 7.321 7.32.286 16 .286S31.714 7.32 31.714 16 24.68 31.714 16 31.714.286 24.68.286 16z"/></symbol><symbol viewBox="0 0 32 32" id="prizes-usage" xmlns="http://www.w3.org/2000/svg"><path fill-rule="evenodd" clip-rule="evenodd" d="M3.429 7.714c-.79 0-1.43.64-1.43 1.429V16c0 .789.64 1.429 1.43 1.429H28.57c.79 0 1.429-.64 1.429-1.429V9.143c0-.79-.64-1.429-1.429-1.429H3.428zM.286 9.143A3.143 3.143 0 013.429 6H28.57a3.143 3.143 0 013.143 3.143V16a3.143 3.143 0 01-3.143 3.143H3.428A3.143 3.143 0 01.286 16V9.143z"/><path fill-rule="evenodd" clip-rule="evenodd" d="M3.428 17.428c.474 0 .858.384.858.858V28.57A1.429 1.429 0 005.714 30h20.572a1.428 1.428 0 001.428-1.429V18.286a.857.857 0 011.714 0V28.57a3.143 3.143 0 01-3.142 3.143H5.714a3.143 3.143 0 01-3.143-3.143V18.286c0-.474.384-.858.857-.858z"/><path fill-rule="evenodd" clip-rule="evenodd" d="M16 6c.473 0 .857.384.857.857v24a.857.857 0 01-1.714 0v-24c0-.473.383-.857.857-.857z"/><path fill-rule="evenodd" clip-rule="evenodd" d="M8.484.594a.857.857 0 011.208-.11L16 5.741 22.308.484a.857.857 0 111.098 1.317l-6.857 5.715a.857.857 0 01-1.098 0L8.594 1.8a.857.857 0 01-.11-1.207z"/></symbol><symbol viewBox="0 0 32 32" id="star-usage" xmlns="http://www.w3.org/2000/svg"><path fill-rule="evenodd" clip-rule="evenodd" d="M16 2.633a.377.377 0 00-.342.219l-.01.02-3.627 7.323a2.022 2.022 0 01-1.6 1.17l-8.01 1.186a.842.842 0 01-.059.006.378.378 0 00-.23.65l.005.005 5.847 5.641a2.069 2.069 0 01.62 1.865l-.001.003-1.394 8.155v.002a.4.4 0 00.582.422l7.224-3.818a2.206 2.206 0 011.99 0L24.22 29.3a.4.4 0 00.582-.422l-1.394-8.065v-.002a2.069 2.069 0 01.614-1.862l5.775-5.729a.377.377 0 00-.191-.667l-.017-.002-8.01-1.187a2.023 2.023 0 01-1.6-1.169l-3.627-7.323.768-.38-.778.36A.377.377 0 0016 2.633zm1.893-.513a2.092 2.092 0 00-3.785 0l-3.63 7.328a.964.964 0 00-.015.033.309.309 0 01-.249.181.876.876 0 00-.03.004l-7.998 1.185a2.091 2.091 0 00-1.245 3.6l5.847 5.64.01.01a.354.354 0 01.107.32l-.001.006-1.394 8.157v.002a2.114 2.114 0 003.074 2.229l.001-.001 7.207-3.809a.491.491 0 01.416 0l7.207 3.809h.001a2.114 2.114 0 003.074-2.23l-1.394-8.067v-.004a.353.353 0 01.125-.339l5.775-5.73a2.092 2.092 0 00-1.163-3.59l-8.016-1.188a.881.881 0 00-.031-.004.308.308 0 01-.248-.181.803.803 0 00-.015-.033l-3.63-7.328z"/></symbol><symbol fill="none" viewBox="0 0 24 24" id="view-usage" xmlns="http://www.w3.org/2000/svg"><path d="M21.257 10.962c.474.62.474 1.457 0 2.076C19.764 14.987 16.182 19 12 19c-4.182 0-7.764-4.013-9.257-5.962a1.692 1.692 0 010-2.076C4.236 9.013 7.818 5 12 5c4.182 0 7.764 4.013 9.257 5.962v0z" stroke="#86868B" stroke-width="1.5" stroke-linecap="round" stroke-linejoin="round"/><path d="M12 15a3 3 0 100-6 3 3 0 000 6z" stroke="#86868B" stroke-width="1.5" stroke-linecap="round" stroke-linejoin="round"/></symbol><symbol viewBox="0 0 40 40" id="vk-usage" xmlns="http://www.w3.org/2000/svg"><path d="M38.974 9.736c.175-.864-.21-1.349-1.117-1.349h-4.572c-1.047 0-1.431.45-1.745 1.107 0 0-2.424 5.476-5.432 8.766-.966 1.063-1.135 1.383-1.668 1.383-.43 0-.628-.355-.628-1.314V9.922c0-1.176-.138-1.535-1.117-1.535h-7.278c-.562 0-.937.303-.937.743 0 1.107 1.71 1.357 1.71 4.358v6.193c0 1.245-.07 1.73-.663 1.73-1.57 0-5.65-5.33-7.743-11.42-.42-1.245-.871-1.604-2.062-1.604h-4.56C.498 8.387 0 8.85 0 9.507c0 1.21 1.43 6.815 7.05 14.322 3.77 5.05 9.048 7.784 13.515 7.784 2.723 0 3.247-.468 3.247-1.61v-3.875c0-.968.383-1.384.942-1.384.628 0 1.555.22 4.147 2.752 3.07 2.906 3.28 4.117 4.956 4.117h5.13c.524 0 1.013-.242 1.013-1.107 0-1.142-1.501-3.183-3.805-5.604-.942-1.246-2.478-2.595-2.967-3.218-.698-.726-.488-1.142 0-1.902 0 0 5.222-7.624 5.746-10.046z"/></symbol><symbol viewBox="0 0 40 40" id="youtube-usage" xmlns="http://www.w3.org/2000/svg"><path fill-rule="evenodd" clip-rule="evenodd" d="M5.635 6.681C2.805 6.816.533 8.948.349 11.669.173 14.276 0 17.483 0 20c0 2.517.173 5.724.35 8.331.183 2.72 2.456 4.853 5.285 4.988 4.097.195 9.953.431 14.365.431 4.412 0 10.268-.236 14.365-.431 2.83-.135 5.102-2.267 5.286-4.988.176-2.607.349-5.814.349-8.331 0-2.517-.173-5.724-.35-8.331-.183-2.72-2.456-4.853-5.285-4.988C30.268 6.486 24.412 6.25 20 6.25c-4.412 0-10.268.236-14.365.431zM27.5 20l-11.25 6.25v-12.5L27.5 20z"/></symbol></svg>