<svg id="Кроссфит" xmlns="http://www.w3.org/2000/svg" viewBox="0 0 23.04 81.07"><defs><style>.cls-1{fill:#1d1e20;}</style></defs><title>next</title><path class="cls-1" d="M1189,724.61l-0.09-.16-1.07-2.05c-0.25-.49-0.51-1-0.77-1.46a0.19,0.19,0,0,1,0-.23l0.07-.14,18.9-36.28a0.43,0.43,0,0,0,0-.5l-18.91-36.3a0.4,0.4,0,0,1,0-.45c0.59-1.12,1.18-2.25,1.76-3.38,0.08-.15.12-0.18,0.2,0l20.18,38.75c0.24,0.47.48,0.94,0.73,1.4a0.45,0.45,0,0,1,0,.49q-2.86,5.47-5.71,11L1189.1,724.4Z" transform="translate(-1187.03 -643.53)"/></svg>