<svg id="Кроссфит" xmlns="http://www.w3.org/2000/svg" viewBox="0 0 22.63 81.07"><defs><style>.cls-1{fill:#1d1e20;}</style></defs><title>prev</title><path class="cls-1" d="M1155.21,724.61l0.09-.16,1.05-2.05c0.25-.49.5-1,0.75-1.46a0.2,0.2,0,0,0,0-.23l-0.07-.14-18.56-36.28a0.43,0.43,0,0,1,0-.5l18.57-36.3a0.4,0.4,0,0,0,0-.45c-0.58-1.12-1.16-2.25-1.73-3.38-0.07-.15-0.11-0.18-0.2,0l-19.81,38.75c-0.24.47-.48,0.94-0.72,1.4a0.45,0.45,0,0,0,0,.49q2.81,5.47,5.61,11l14.91,29.16Z" transform="translate(-1134.51 -643.53)"/></svg>