<svg width="181" height="48" viewBox="0 0 181 48" fill="none" xmlns="http://www.w3.org/2000/svg"><circle cx="45.222" cy="42.667" r="5.222" fill="#0088E7"/><circle cx="76.667" cy="42.667" r="5.222" fill="#0088E7"/><circle cx="108.111" cy="42.667" r="5.222" fill="#0088E7"/><circle cx="139.556" cy="42.667" r="5.222" fill="#0088E7"/><circle cx="171" cy="42.667" r="5.222" fill="#0088E7"/><g clip-path="url(#clip0_594_525)"><path d="M40.496 15.846V26.88h-2.465V15.846h-2.934v-2.465h8.334v2.465" fill="#282828"/><path d="M50.943 18.076c-.939-.939-2.348-1.526-3.756-1.526-1.409 0-2.7.587-3.756 1.526-.94.94-1.526 2.348-1.526 3.757 0 1.408.587 2.7 1.526 3.756.939.939 2.347 1.526 3.756 1.526 1.408 0 2.7-.587 3.756-1.526.94-.94 1.526-2.348 1.526-3.756 0-1.409-.47-2.7-1.526-3.756zm-.47 4.343c-.117.587-.469 1.174-.938 1.644-.587.587-1.41.939-2.348.939-.235 0-.47 0-.704-.117-.587-.118-1.174-.47-1.644-.94-.587-.586-.939-1.408-.939-2.347 0-.235 0-.47.118-.704.117-.587.47-1.174.939-1.644.587-.587 1.408-.939 2.347-.939.235 0 .47 0 .704.118.587.117 1.174.47 1.644.939.587.587.939 1.408.939 2.347-.117.352-.117.587-.117.704zm7.513-.821l4.812 5.282h-3.287l-3.638-3.99v3.99h-2.465V13.381h2.465v6.926l3.052-3.522h3.286m.705 6.925v-6.925h2.465v6.926c0 .352.117.704.352.822l.235.234c.352.235.822.352 1.291.352.47 0 .94-.117 1.291-.352.235-.117.47-.47.587-.704v-7.278h2.465V26.88h-2.465v-.939c-.235.352-.704.704-1.056.822a3.14 3.14 0 01-1.409.352c-.235 0-.587 0-.822-.117-.234 0-.469-.118-.821-.235l-.704-.352c-.235-.118-.353-.235-.587-.47l-.47-.47c-.117-.234-.235-.352-.352-.586V23.71zm97.543-3.755v6.925h-2.465v-6.925c0-.353-.118-.705-.353-.822l-.234-.235c-.352-.235-.822-.352-1.291-.352-.47 0-.94.117-1.292.352-.234.117-.469.47-.587.704v7.278h-2.465V16.785h2.465v.94c.235-.353.705-.705 1.057-.822a3.123 3.123 0 011.408-.352c.353 0 .587 0 .822.117.235 0 .47.117.822.235l.704.352c.235.117.352.235.587.47l.469.469c.118.235.235.352.353.587-.118.235 0 .704 0 1.174zm-82.636 2.817l2.817-5.987h2.7L77 30.636h-2.7l2.23-4.812-4.108-9.039h2.7m15.613 0v.94c-.235-.118-.47-.353-.704-.47a5.723 5.723 0 00-.822-.352 4.71 4.71 0 00-1.76-.352c-1.41 0-2.7.586-3.757 1.526-.94.938-1.526 2.347-1.526 3.756 0 1.408.587 2.7 1.526 3.756.939.939 2.348 1.526 3.756 1.526a4.71 4.71 0 001.76-.352c.236-.118.588-.235.823-.353.234-.117.469-.352.704-.47v.823H93.2V16.668l-2.465.117zm0 5.634c-.118.587-.47 1.174-.94 1.644-.586.587-1.408.939-2.347.939-.235 0-.47 0-.704-.117-.587-.118-1.174-.47-1.644-.94-.586-.586-.938-1.408-.938-2.347 0-.235 0-.47.117-.704.117-.587.47-1.174.939-1.644.587-.587 1.408-.939 2.347-.939.235 0 .47 0 .705.118.587.117 1.174.47 1.643.939.587.587.94 1.408.94 2.347-.118.352-.118.587-.118.704zm18.311-2.464c0-.47-.117-.94-.235-1.292-.117-.234-.234-.352-.352-.587a.913.913 0 00-.469-.469c-.118-.117-.352-.352-.587-.352l-.704-.352c-.235-.118-.47-.118-.822-.235-.235 0-.587-.117-.822-.117a3.16 3.16 0 00-1.76.586c-.353.353-.705.705-.939 1.174-.353-.587-.822-.939-1.292-1.29-.704-.353-1.408-.47-2.112-.47-.47 0-.822.117-1.292.352-.234.117-.352.234-.587.352-.117.117-.234.352-.352.47v-.94h-2.465V26.88h2.465v-7.16c.118-.352.235-.587.587-.822s.822-.352 1.291-.352c.47 0 .94.117 1.292.352l.117.117c.235.235.352.587.352.94v6.925h2.465v-7.16c.117-.352.235-.587.587-.822s.822-.352 1.291-.352c.47 0 .939.117 1.291.352l.235.117c.235.235.352.587.352.94v6.925h2.465m9.156-10.095v.94c-.235-.118-.47-.353-.705-.47a5.68 5.68 0 00-.821-.352 4.71 4.71 0 00-1.761-.352c-1.409 0-2.7.586-3.756 1.526-.939.938-1.526 2.347-1.526 3.756 0 1.408.587 2.7 1.526 3.756.939.939 2.347 1.526 3.756 1.526a4.71 4.71 0 001.761-.352c.234-.118.587-.235.821-.353.235-.117.47-.352.705-.47v.823h2.465V16.668l-2.465.117zm0 5.634c-.118.587-.47 1.174-.939 1.644-.587.587-1.409.939-2.348.939-.235 0-.47 0-.704-.117-.587-.118-1.174-.47-1.644-.94-.587-.586-.939-1.408-.939-2.347 0-.235 0-.47.118-.704.117-.587.469-1.174.939-1.644.587-.587 1.408-.939 2.347-.939.235 0 .47 0 .705.118.586.117 1.173.47 1.643.939.587.587.939 1.408.939 2.347-.117.352-.117.587-.117.704zm56.812-5.634v.94c-.235-.118-.47-.353-.705-.47a5.68 5.68 0 00-.821-.352 4.71 4.71 0 00-1.761-.352c-1.409 0-2.7.586-3.756 1.526-.939.938-1.526 2.347-1.526 3.756 0 1.408.587 2.7 1.526 3.756.939.939 2.347 1.526 3.756 1.526a4.71 4.71 0 001.761-.352c.234-.118.587-.235.821-.353.235-.117.47-.352.705-.47v.823h2.465V16.668l-2.465.117zm-.118 5.634c-.117.587-.469 1.174-.939 1.644-.587.587-1.408.939-2.347.939-.235 0-.47 0-.705-.117-.587-.118-1.174-.47-1.643-.94-.587-.586-.939-1.408-.939-2.347 0-.235 0-.47.117-.704.118-.587.47-1.174.939-1.644.587-.587 1.409-.939 2.348-.939.235 0 .469 0 .704.118.587.117 1.174.47 1.644.939.586.587.939 1.408.939 2.347 0 .352 0 .587-.118.704zm-8.568-5.869h-1.526v-3.169h-2.465v3.17h-1.644v2.112h1.644v8.217h2.465v-8.217h1.878v-2.112m13.616-7.043h-1.761V26.88H181V9.508m-32.632 13.616c-.352.822-1.174 1.76-2.817 1.878-1.291 0-2.582-1.056-2.934-2.23h8.216v-.47c.118-1.174-.235-2.23-.821-3.17-.705-1.173-2.231-2.582-4.461-2.582-2.934 0-5.282 2.465-5.282 5.283 0 1.408.587 2.7 1.526 3.756.939.939 2.348 1.526 3.756 1.526 1.996 0 3.756-1.174 4.695-2.935l-1.878-1.056zm-2.699-4.695c1.056 0 2.347.704 2.934 2.113h-5.752c.353-1.41 1.644-2.113 2.818-2.113zm-9.038-3.991c-1.057-.705-2.583-1.057-4.344-1.057h-4.108v13.382h4.108c1.644 0 3.287-.353 4.344-1.057 2.934-1.878 3.051-4.93 3.051-5.517.118-1.878-.704-4.343-3.051-5.751zm-.939 9.038c-1.292.94-2.818.94-3.874.94h-1.056v-8.687h1.056c1.761 0 2.817.235 3.756.822 1.174.821 1.761 1.995 1.761 3.404 0 1.526-.47 2.582-1.643 3.521zM29.345 19.133c0 3.873-3.169 7.043-7.042 7.043-3.874 0-7.043-3.17-7.043-7.043 0-3.874 3.169-7.043 7.043-7.043 3.873 0 7.042 3.17 7.042 7.043zm-9.507 3.521c1.878 1.291 4.577.822 5.869-1.056 1.29-1.878.821-4.578-1.057-5.87l-4.812 6.926z" fill="#282828"/><path d="M13.147 19.133c0-5.047 4.108-9.156 9.038-9.156 3.17 0 5.986 1.644 7.63 4.226A14.875 14.875 0 0014.906 0c-2.7 0-5.282.704-7.512 1.995 3.639-.234 6.925.353 9.977 1.996-5.165-.235-10.212.704-14.555 2.23C1.057 8.686 0 11.738 0 14.907c0 8.217 6.69 14.907 14.907 14.907 2.465 0 4.93-.586 6.926-1.76-4.813 0-8.686-3.991-8.686-8.921z" fill="#0088E7"/></g><defs><clipPath id="clip0_594_525"><path fill="#fff" d="M0 0h181v30.636H0z"/></clipPath></defs></svg>